<svg width="181" height="188" viewBox="0 0 181 188" fill="none" xmlns="http://www.w3.org/2000/svg">
<g filter="url(#filter0_d_60_1212)">
<rect x="5" y="1" width="165" height="178" rx="30" fill="white"/>
<rect x="5" y="1" width="172" height="178" rx="30" fill="#B7CBD4"/>
<path d="M9.18188 100.01V92.4742M9.18188 92.4742C9.18188 92.4742 19.3379 75.8955 20.8585 75.8955C22.3792 75.8954 32.9154 92.4742 32.9154 92.4742M9.18188 92.4742H32.9154M32.9154 92.4742V100.01M95.9151 63.9423C100.869 60.4101 104.17 60.928 111.231 63.9423M95.9151 58.0689C100.869 54.5367 111.991 55.1068 118.888 63.9423M95.7521 52.8197C100.706 49.2875 115.738 48.3506 126.655 63.9423M95.7521 46.9463C100.706 43.4141 123.124 43.6732 133.172 63.9423M96.1866 40.7629C104.279 38.0601 129.424 40.7629 140.123 63.9423M96.1866 34.8895C105.908 33.0192 131.325 36.0335 147.727 63.9423M96.0237 29.6403C108.895 26.6268 138.983 35.7736 154.624 63.9423M96.0237 23.7669C104.496 21.897 140.123 27.2504 161.141 63.9423M96.078 18.8845C112.588 15.4531 149.193 28.3418 168.093 63.9423M96.078 13.0111C112.588 9.06065 154.624 26.5229 170.972 58.0689M95.9151 7.76187C119.594 3.60372 152.017 25.4314 162.554 38.0601M95.9151 1.88848C100.869 -1.64374 136.593 5.42267 152.017 21.897M88.8548 64.6174C87.9442 64.1237 85.3812 64.3277 84.51 64.8773M88.1487 61.759C83.9669 61.2393 80.6563 63.756 79.785 64.3056M88.1487 58.4849C83.9669 57.9651 75.4968 64.0679 74.6255 64.6174M88.1487 55.0548C79.785 55.7824 71.2063 64.0679 70.335 64.6174M88.1487 52.5082C74.6255 52.8197 67.1874 63.756 66.3161 64.3056M88.1487 49.9616C71.3669 51.053 63.6572 63.756 62.7859 64.3056M88.1487 46.9463C67.7824 47.8644 60.3443 64.0679 59.473 64.6174M88.1487 44.3997C63.7635 46.2717 57.0314 64.0679 56.1601 64.6174M88.1487 41.8532C59.473 44.3997 53.6642 63.756 52.7929 64.3056M88.1487 39.3066C59.473 40.7629 49.8624 63.756 48.9912 64.3056M88.1487 36.76C56.1601 38.4761 46.8754 63.756 46.0041 64.3056M88.1487 34.2134C52.0868 36.76 44.1056 64.0679 43.2343 64.6174M88.1487 31.6669C49.8058 33.3894 40.9556 63.756 40.0843 64.3056M88.1487 28.6536C47.0903 31.2229 37.4798 64.0679 36.6085 64.6174M88.1487 26.1071C42.7455 29.1733 34.6013 64.0679 33.73 64.6174M88.1487 23.3526C38.8352 26.9386 31.9944 64.0679 31.1231 64.6174M88.1487 20.4422C35.1421 24.2346 28.9531 63.756 28.0818 64.3056M88.1487 17.9996C31.7206 21.5954 25.26 63.756 24.3887 64.3056M88.1487 14.7255C26.6154 19.9745 21.7298 64.3277 20.8585 64.8773M88.1487 12.1789C24.3887 16.4925 18.0911 64.0679 17.2198 64.6174M88.1487 9.63233C20.8585 14.7255 15.3755 63.3928 14.5043 63.9423M88.1487 6.8259C19.5008 12.1789 12.3342 64.3277 11.4629 64.8773M88.1487 4.27934C19.9353 9.06065 8.80403 64.3277 7.93274 64.8773M88.1487 1.36897C17.2198 4.27934 5.87129 63.3928 5 63.9423" stroke="#2C1D01" stroke-linecap="round"/>
<path d="M95.9164 115.947C100.875 119.473 104.176 118.951 111.232 115.928M95.9243 121.82C100.882 125.346 112.004 124.763 118.89 115.919M95.7684 127.069C100.727 130.596 115.76 131.514 126.656 115.909M95.7762 132.943C100.734 136.469 123.153 136.182 133.173 115.901M96.2189 139.126C104.315 141.819 129.457 139.085 140.125 115.893M96.2268 144.999C105.951 146.858 131.364 143.812 147.728 115.883M96.0708 150.249C108.946 153.246 139.022 144.063 154.626 115.875M96.0787 156.122C104.554 157.981 140.174 152.584 161.143 115.867M96.1395 161.004C112.654 164.415 149.242 151.482 168.094 115.858M96.1473 166.878C112.663 170.808 154.676 153.294 170.981 121.728M95.9914 172.127C119.676 176.256 152.07 154.389 162.589 141.747M95.9992 178C100.957 181.527 136.673 174.417 152.075 157.923M88.8552 115.28C87.9453 115.775 85.3821 115.574 84.5101 115.026M88.153 118.139C83.9718 118.664 80.6579 116.152 79.7859 115.603M88.1574 121.414C83.9762 121.938 75.498 115.846 74.626 115.298M88.162 124.844C79.7973 124.126 71.2075 115.851 70.3355 115.303M88.1654 127.39C74.6418 127.095 67.189 116.168 66.317 115.62M88.1688 129.937C71.3855 128.866 63.6589 116.172 62.7868 115.624M88.1728 132.952C67.8053 132.059 60.3455 115.865 59.4735 115.316M88.1762 135.499C63.7885 133.657 57.0326 115.869 56.1606 115.32M88.1796 138.045C59.5005 135.534 53.6658 116.185 52.7938 115.636M88.183 140.592C59.5053 139.171 49.8641 116.189 48.9921 115.641M88.1864 143.138C56.1955 141.461 46.8771 116.193 46.005 115.644M88.1898 145.685C52.1245 143.182 44.1068 115.884 43.2348 115.336M88.1932 148.232C49.848 146.556 40.9573 116.2 40.0852 115.652M88.1972 151.245C47.1354 148.726 37.481 115.893 36.609 115.344M88.2006 153.791C42.7933 150.781 34.6026 115.896 33.7306 115.348M88.2043 156.546C38.886 153.02 31.9957 115.899 31.1237 115.351M88.2082 159.456C35.1965 155.729 28.9548 116.215 28.0827 115.666M88.2114 161.899C31.7785 158.372 25.2617 116.219 24.3896 115.671M88.2158 165.173C26.6755 159.999 21.7308 115.652 20.8587 115.103M88.2192 167.72C24.4535 163.484 18.0923 115.916 17.2203 115.368M88.2226 170.266C20.9257 165.255 15.3777 116.595 14.5057 116.046M88.2263 173.072C19.5713 167.803 12.3351 115.663 11.4631 115.115M88.2297 175.619C20.0099 170.921 8.80497 115.668 7.93295 115.119M88.2336 178.529C17.3008 175.706 5.87347 116.606 5.00145 116.058" stroke="#2C1D01" stroke-linecap="round"/>
<path d="M43.4536 78.7096C45.0552 78.7877 47.0767 78.8268 49.5181 78.8268C56.4224 87.4791 60.1333 92.0885 60.6509 92.6549C61.1685 93.2115 61.4272 93.4899 61.4272 93.4899H61.5444C61.5835 91.6149 61.603 90.1061 61.603 88.9635C61.603 86.7076 61.5542 84.0563 61.4565 81.0094C61.437 80.1305 60.353 79.5934 58.2046 79.3981C58.1655 79.1832 58.146 79.0514 58.146 79.0026C58.146 78.9244 58.1655 78.8268 58.2046 78.7096C59.7769 78.7682 61.1685 78.7975 62.3794 78.7975C63.1606 78.7975 64.4692 78.7682 66.3052 78.7096C66.3442 78.8268 66.3638 78.9244 66.3638 79.0026C66.3638 79.1588 66.3442 79.2906 66.3052 79.3981C64.1665 79.5934 63.0874 80.1305 63.0679 81.0094C62.9507 84.066 62.8921 87.0787 62.8921 90.0475C62.8921 94.5885 62.9409 98.0065 63.0386 100.301L62.7749 100.331L48.2144 82.4156H48.0679C48.0093 84.9449 47.98 87.4987 47.98 90.0768C47.98 92.3424 48.0288 94.9889 48.1265 98.0162C48.146 98.9049 49.2251 99.4469 51.3638 99.6422C51.4126 99.8082 51.437 99.9401 51.437 100.038C51.437 100.135 51.4126 100.233 51.3638 100.331C49.811 100.272 48.4243 100.243 47.2036 100.243C46.4224 100.243 45.1138 100.272 43.2778 100.331C43.229 100.233 43.2046 100.135 43.2046 100.038C43.2046 99.8717 43.229 99.7399 43.2778 99.6422C45.436 99.4371 46.5151 98.8951 46.5151 98.0162C46.6323 94.9694 46.6909 91.9615 46.6909 88.9928C46.6909 85.7701 46.6519 82.9723 46.5737 80.5992C45.7534 79.8864 44.7134 79.486 43.4536 79.3981C43.395 79.2711 43.3657 79.1588 43.3657 79.0612C43.3657 78.9147 43.395 78.7975 43.4536 78.7096ZM70.8146 78.7096C73.0021 78.7877 74.7013 78.8268 75.9122 78.8268C77.1231 78.8268 78.8224 78.7877 81.0099 78.7096C81.0489 78.8658 81.0685 78.9733 81.0685 79.0319C81.0685 79.1393 81.0489 79.2614 81.0099 79.3981C80.5606 79.4371 80.1944 79.4811 79.9112 79.5299C79.6378 79.569 79.296 79.6373 78.8858 79.735C78.4854 79.8326 78.1778 79.9742 77.963 80.1598C77.7481 80.3356 77.6358 80.5504 77.6261 80.8043C77.4991 83.6949 77.4356 86.3658 77.4356 88.817H77.8604L86.1661 80.8043C86.2931 80.6188 86.3565 80.4772 86.3565 80.3795C86.3565 80.194 86.3028 80.0426 86.1954 79.9254C86.0978 79.7985 85.9122 79.7057 85.6388 79.6471C85.3751 79.5787 85.1065 79.5299 84.8331 79.5006C84.5694 79.4713 84.1739 79.4371 83.6466 79.3981C83.6075 79.2223 83.588 79.1002 83.588 79.0319C83.588 78.9733 83.6075 78.8658 83.6466 78.7096C85.8536 78.7877 87.3038 78.8268 87.9972 78.8268C88.4757 78.8268 89.8185 78.7877 92.0255 78.7096C92.0646 78.8658 92.0841 78.9733 92.0841 79.0319C92.0841 79.1002 92.0646 79.2223 92.0255 79.3981C91.6056 79.4371 91.2687 79.4762 91.0147 79.5153C90.7706 79.5543 90.4532 79.6227 90.0626 79.7203C89.6817 79.8082 89.3155 79.9449 88.964 80.1305C88.6222 80.3063 88.2901 80.5309 87.9679 80.8043L80.4093 87.9967L89.711 97.4596C91.2735 98.8561 92.6456 99.5836 93.8272 99.6422C93.8663 99.7985 93.8858 99.9303 93.8858 100.038C93.8858 100.155 93.8663 100.262 93.8272 100.36C92.4112 100.282 90.8487 100.243 89.1397 100.243C87.6065 100.243 85.756 100.282 83.588 100.36C83.5489 100.243 83.5294 100.126 83.5294 100.008C83.5294 99.8815 83.5489 99.7594 83.588 99.6422C84.5353 99.6129 85.1603 99.5299 85.463 99.3932C85.7755 99.2467 85.9317 98.9977 85.9317 98.6461C85.9317 98.5192 85.8976 98.3971 85.8292 98.2799C85.7608 98.1627 85.6388 98.0114 85.463 97.8258C85.297 97.6305 85.1944 97.5084 85.1554 97.4596L78.0069 90.0475L77.4356 90.0768C77.4356 92.1666 77.4894 94.8864 77.5968 98.236C77.6065 98.4899 77.7188 98.7096 77.9337 98.8951C78.1485 99.0709 78.4562 99.2076 78.8565 99.3053C79.2667 99.403 79.6085 99.4762 79.8819 99.525C80.1651 99.5641 80.5313 99.6031 80.9806 99.6422C81.0196 99.7594 81.0392 99.8912 81.0392 100.038C81.0392 100.116 81.0196 100.214 80.9806 100.331C79.3204 100.272 77.6212 100.243 75.8829 100.243C74.1251 100.243 72.4259 100.272 70.7853 100.331C70.7462 100.214 70.7267 100.116 70.7267 100.038C70.7267 99.8717 70.7462 99.7399 70.7853 99.6422C71.0782 99.6129 71.3126 99.5885 71.4884 99.569C71.6642 99.5494 71.9034 99.5153 72.2062 99.4664C72.5187 99.4176 72.7677 99.3639 72.9532 99.3053C73.1485 99.2369 73.3487 99.1539 73.5538 99.0563C73.7589 98.9586 73.9103 98.8414 74.0079 98.7047C74.1153 98.568 74.169 98.4117 74.169 98.236C74.2862 95.1793 74.3448 92.0983 74.3448 88.9928C74.3448 85.8287 74.296 83.0992 74.1983 80.8043C74.1886 80.5504 74.0763 80.3356 73.8614 80.1598C73.6466 79.9742 73.3341 79.8326 72.9239 79.735C72.5235 79.6373 72.1817 79.569 71.8985 79.5299C71.6251 79.4811 71.2638 79.4371 70.8146 79.3981C70.7755 79.2223 70.756 79.1002 70.756 79.0319C70.756 78.9342 70.7755 78.8268 70.8146 78.7096ZM98.1901 78.7096C100.397 78.7877 102.131 78.8268 103.39 78.8268C104.582 78.8268 106.281 78.7877 108.488 78.7096C108.527 78.8658 108.547 78.9733 108.547 79.0319C108.547 79.1393 108.527 79.2614 108.488 79.3981C108.039 79.4371 107.673 79.4811 107.389 79.5299C107.106 79.569 106.759 79.6373 106.349 79.735C105.939 79.8326 105.627 79.9742 105.412 80.1598C105.197 80.3356 105.09 80.5504 105.09 80.8043C105.08 81.4391 105.065 82.9283 105.046 85.2721C105.036 87.6158 105.021 89.8082 105.002 91.8492C104.982 93.4801 104.953 94.818 104.914 95.8629C104.884 96.8981 104.816 98.0504 104.709 99.3199C104.611 100.58 104.469 101.59 104.284 102.352C104.108 103.124 103.864 103.91 103.551 104.711C103.239 105.521 102.858 106.141 102.409 106.571C101.969 107.001 101.427 107.352 100.783 107.626C100.138 107.899 99.3962 108.036 98.5563 108.036C97.1403 108.036 96.0417 107.689 95.2604 106.996C94.4792 106.302 94.0886 105.482 94.0886 104.535C94.0886 103.724 94.3034 103.094 94.7331 102.645C95.1628 102.206 95.7292 101.986 96.4323 101.986C97.0085 101.986 97.5017 102.142 97.9118 102.455C98.322 102.767 98.5271 103.231 98.5271 103.846C98.5271 104.178 98.444 104.471 98.278 104.725C98.112 104.989 97.9265 105.179 97.7214 105.297C97.5261 105.423 97.3454 105.536 97.1794 105.633C97.0134 105.741 96.9304 105.814 96.9304 105.853C96.9304 106.224 97.072 106.527 97.3552 106.761C97.6481 106.996 98.0485 107.113 98.5563 107.113C99.1032 107.113 99.5622 107.01 99.9333 106.805C100.314 106.6 100.622 106.312 100.856 105.941C101.1 105.57 101.286 105.052 101.413 104.388C101.54 103.724 101.623 103.016 101.662 102.264C101.711 101.512 101.735 100.57 101.735 99.4371C101.735 89.7887 101.686 83.5778 101.589 80.8043C101.579 80.5504 101.467 80.3356 101.252 80.1598C101.037 79.9742 100.724 79.8326 100.314 79.735C99.904 79.6373 99.5573 79.569 99.2741 79.5299C99.0007 79.4811 98.6394 79.4371 98.1901 79.3981C98.1511 79.2223 98.1315 79.1002 98.1315 79.0319C98.1315 78.9342 98.1511 78.8268 98.1901 78.7096ZM123.559 78.7096C124.389 78.7389 125.229 78.7682 126.078 78.7975C126.938 78.817 127.807 78.8268 128.686 78.8268H130.37C131.386 78.817 132.372 78.8121 133.329 78.8121C134.286 78.8121 135.239 78.8121 136.186 78.8121C137.133 78.8024 138.085 78.7926 139.042 78.7828C139.999 78.7633 140.986 78.7389 142.001 78.7096C142.07 79.2565 142.177 79.7838 142.324 80.2916C142.48 80.7897 142.656 81.2682 142.851 81.7272C143.046 82.1862 143.256 82.6305 143.481 83.0602C143.715 83.4801 143.945 83.8854 144.169 84.276C144.091 84.442 143.92 84.5739 143.657 84.6715C143.325 84.0563 142.905 83.4703 142.397 82.9137C141.899 82.3571 141.259 81.859 140.478 81.4196C139.706 80.9801 138.774 80.6139 137.68 80.3209C136.596 80.0182 135.307 79.818 133.813 79.7203H130.37C130.341 80.6774 130.312 81.5709 130.283 82.401C130.263 83.2311 130.243 84.027 130.224 84.7887C130.214 85.5406 130.204 86.2682 130.195 86.9713C130.195 87.6744 130.195 88.3678 130.195 89.0514H133.754C134.408 89.0514 134.955 88.9342 135.395 88.6998C135.844 88.4557 136.235 88.1285 136.567 87.7184C136.908 87.2985 137.221 86.8151 137.504 86.2682C137.787 85.7213 138.09 85.1403 138.412 84.525C138.53 84.5739 138.642 84.6276 138.749 84.6862C138.857 84.7448 138.935 84.818 138.984 84.9059C138.779 85.2574 138.583 85.6432 138.398 86.0631C138.222 86.4733 138.066 86.8834 137.929 87.2936C137.802 87.7037 137.7 88.0992 137.621 88.4801C137.543 88.861 137.504 89.2028 137.504 89.5055C137.504 90.316 137.646 91.1119 137.929 91.8932C138.222 92.6647 138.574 93.3971 138.984 94.0905C138.935 94.1783 138.857 94.2565 138.749 94.3248C138.642 94.3834 138.53 94.4371 138.412 94.486C138.1 93.9196 137.802 93.3629 137.519 92.816C137.236 92.2692 136.923 91.7858 136.581 91.3658C136.249 90.9459 135.859 90.609 135.409 90.3551C134.96 90.0914 134.408 89.9596 133.754 89.9596H130.195C130.195 90.7115 130.195 91.4342 130.195 92.1276C130.204 92.8112 130.214 93.5289 130.224 94.2809C130.243 95.0328 130.263 95.8239 130.283 96.6539C130.302 97.484 130.322 98.3824 130.341 99.3492H134.413C135.908 99.2516 137.197 99.0563 138.281 98.7633C139.374 98.4606 140.307 98.0895 141.078 97.65C141.86 97.2106 142.499 96.7125 142.997 96.1559C143.505 95.5992 143.925 95.0133 144.257 94.3981C144.374 94.4469 144.477 94.5006 144.565 94.5592C144.653 94.6178 144.721 94.691 144.77 94.7789C144.545 95.1989 144.316 95.6188 144.081 96.0387C143.857 96.4489 143.647 96.8737 143.451 97.3131C143.256 97.7526 143.08 98.2164 142.924 98.7047C142.778 99.1832 142.67 99.6959 142.602 100.243H130.341C129.843 100.243 129.296 100.243 128.7 100.243C128.115 100.253 127.514 100.257 126.899 100.257C126.293 100.267 125.698 100.277 125.112 100.287C124.526 100.306 123.998 100.321 123.53 100.331C123.51 100.282 123.495 100.233 123.486 100.184C123.476 100.135 123.471 100.087 123.471 100.038C123.471 99.9694 123.476 99.9059 123.486 99.8473C123.495 99.7887 123.51 99.7203 123.53 99.6422C123.842 99.6129 124.194 99.5739 124.584 99.525C124.975 99.4762 125.341 99.403 125.683 99.3053C126.025 99.1979 126.313 99.0612 126.547 98.8951C126.782 98.7291 126.904 98.5094 126.913 98.236C126.962 96.859 127.001 95.4869 127.031 94.1198C127.06 92.7428 127.084 91.3561 127.104 89.9596H121.493L116.718 98.1188C116.689 98.1969 116.655 98.2897 116.616 98.3971C116.586 98.4948 116.572 98.5582 116.572 98.5875C116.572 98.8219 116.669 99.0026 116.865 99.1295C117.07 99.2565 117.319 99.3541 117.612 99.4225C117.914 99.4811 118.237 99.525 118.578 99.5543C118.93 99.5739 119.252 99.6031 119.545 99.6422C119.565 99.7008 119.579 99.7643 119.589 99.8326C119.599 99.901 119.604 99.9694 119.604 100.038C119.604 100.087 119.599 100.14 119.589 100.199C119.579 100.248 119.565 100.301 119.545 100.36C119.135 100.35 118.759 100.336 118.417 100.316C118.075 100.306 117.753 100.292 117.45 100.272C117.158 100.262 116.879 100.253 116.616 100.243C116.362 100.243 116.108 100.243 115.854 100.243C115.336 100.243 114.731 100.253 114.037 100.272C113.354 100.301 112.597 100.331 111.767 100.36C111.747 100.311 111.733 100.253 111.723 100.184C111.713 100.116 111.708 100.057 111.708 100.008C111.708 99.9401 111.713 99.8766 111.723 99.818C111.733 99.7496 111.747 99.691 111.767 99.6422C112.538 99.5543 113.232 99.3981 113.847 99.1735C114.472 98.9391 114.921 98.5973 115.195 98.1481L125.991 79.8375C125.629 79.7008 125.224 79.608 124.775 79.5592C124.325 79.5006 123.92 79.4469 123.559 79.3981C123.539 79.3297 123.525 79.2662 123.515 79.2076C123.505 79.149 123.5 79.0905 123.5 79.0319C123.5 78.9733 123.505 78.9196 123.515 78.8707C123.525 78.8219 123.539 78.7682 123.559 78.7096ZM126.884 80.6871L122.035 89.0514H127.104V88.9928C127.104 87.6354 127.094 86.2584 127.075 84.8619C127.055 83.4655 127.011 82.0739 126.943 80.6871H126.884ZM148.913 78.7096C151.022 78.7877 152.722 78.8268 154.011 78.8268C154.499 78.8268 155.285 78.8073 156.369 78.7682C157.453 78.7291 158.288 78.7096 158.874 78.7096C161.042 78.7096 162.746 79.2565 163.986 80.3502C165.236 81.444 165.861 82.8649 165.861 84.6129C165.861 86.0192 165.446 87.2789 164.616 88.3922C163.786 89.4957 162.653 90.2867 161.218 90.7653C161.872 91.9371 162.77 93.2653 163.913 94.7496C165.017 96.2242 166.066 97.3815 167.062 98.2213C168.068 99.0612 169.147 99.5348 170.3 99.6422C170.339 99.7985 170.358 99.9205 170.358 100.008C170.358 100.106 170.339 100.214 170.3 100.331C169.714 100.301 169.089 100.282 168.425 100.272C167.761 100.262 167.018 100.257 166.198 100.257C165.388 100.257 164.763 100.253 164.323 100.243C161.696 97.1862 159.587 94.1783 157.995 91.2194C157.282 91.2194 156.462 91.1071 155.534 90.8824C155.534 92.777 155.588 95.2281 155.695 98.236C155.705 98.4899 155.817 98.7096 156.032 98.8951C156.247 99.0709 156.555 99.2076 156.955 99.3053C157.365 99.403 157.707 99.4762 157.98 99.525C158.264 99.5641 158.63 99.6031 159.079 99.6422C159.118 99.8375 159.138 99.9694 159.138 100.038C159.138 100.116 159.118 100.214 159.079 100.331C157.419 100.272 155.72 100.243 153.981 100.243C152.224 100.243 150.524 100.272 148.884 100.331C148.845 100.214 148.825 100.116 148.825 100.038C148.825 99.8717 148.845 99.7399 148.884 99.6422C149.177 99.6129 149.411 99.5885 149.587 99.569C149.763 99.5494 150.002 99.5153 150.305 99.4664C150.617 99.4176 150.866 99.3639 151.052 99.3053C151.247 99.2369 151.447 99.1539 151.652 99.0563C151.857 98.9586 152.009 98.8414 152.106 98.7047C152.214 98.568 152.267 98.4117 152.267 98.236C152.385 95.1793 152.443 92.0983 152.443 88.9928C152.443 85.8287 152.394 83.0992 152.297 80.8043C152.287 80.5504 152.175 80.3356 151.96 80.1598C151.745 79.9742 151.433 79.8326 151.022 79.735C150.622 79.6373 150.28 79.569 149.997 79.5299C149.724 79.4811 149.362 79.4371 148.913 79.3981C148.874 79.2223 148.854 79.1002 148.854 79.0319C148.854 78.9733 148.874 78.8658 148.913 78.7096ZM155.725 79.7203H155.695C155.588 83.3239 155.534 86.6735 155.534 89.7692C156.218 89.9938 156.911 90.1061 157.614 90.1061C158.259 90.1061 158.835 89.9987 159.343 89.7838C159.86 89.5592 160.285 89.2662 160.617 88.9049C160.949 88.5436 161.223 88.1188 161.437 87.6305C161.662 87.1422 161.818 86.649 161.906 86.151C162.004 85.653 162.053 85.1403 162.053 84.6129C162.053 83.1578 161.652 81.9713 160.851 81.0533C160.06 80.1256 158.933 79.6617 157.468 79.6617C156.745 79.6617 156.164 79.6813 155.725 79.7203Z" fill="#2C1D01"/>
</g>
<defs>
<filter id="filter0_d_60_1212" x="0.5" y="0.5" width="180.5" height="186.883" filterUnits="userSpaceOnUse" color-interpolation-filters="sRGB">
<feFlood flood-opacity="0" result="BackgroundImageFix"/>
<feColorMatrix in="SourceAlpha" type="matrix" values="0 0 0 0 0 0 0 0 0 0 0 0 0 0 0 0 0 0 127 0" result="hardAlpha"/>
<feOffset dy="4"/>
<feGaussianBlur stdDeviation="2"/>
<feComposite in2="hardAlpha" operator="out"/>
<feColorMatrix type="matrix" values="0 0 0 0 0 0 0 0 0 0 0 0 0 0 0 0 0 0 0.25 0"/>
<feBlend mode="normal" in2="BackgroundImageFix" result="effect1_dropShadow_60_1212"/>
<feBlend mode="normal" in="SourceGraphic" in2="effect1_dropShadow_60_1212" result="shape"/>
</filter>
</defs>
</svg>
