<svg width="1166" height="1480" viewBox="0 0 1166 1480" fill="none" xmlns="http://www.w3.org/2000/svg">
<path d="M1156.95 14.9807C1134.78 26.3737 1072.34 21.7618 1051.09 9.14284M1139.83 80.7886C1037.96 92.8869 957.237 35.0741 935.995 22.4552M1139.92 156.142C1038.05 168.24 831.529 28.0671 810.287 15.4482M1140.02 235.084C936.232 218.614 727 28.2081 705.758 15.5891M1140.09 293.693C810.615 286.968 629.095 35.5167 607.853 22.8977M1140.16 352.301C731.275 327.734 543.091 35.6326 521.848 23.0137M1140.24 421.698C644.036 401.237 462.37 28.565 441.127 15.946M1140.31 480.307C546.167 438.024 381.658 28.6738 360.415 16.0548M1140.38 538.915C441.69 481.249 299.631 35.9609 278.389 23.342M1140.46 597.523C441.791 564.948 207.01 36.0858 185.768 23.4669M1140.53 656.132C361.143 617.687 134.237 36.184 112.995 23.565M1140.6 714.74C261.954 657.316 66.7478 29.0985 45.5054 16.4795M1140.67 773.348C206.476 734.966 -9.98628 36.3785 -31.2286 23.7595M1140.75 842.697C140.378 784.916 -94.6766 29.3161 -115.919 16.6972M1140.82 901.306C34.5835 832.228 -164.804 29.4107 -186.046 16.7917M1140.9 964.698C-60.6212 883.788 -228.315 29.4964 -249.557 16.8774M1140.98 1031.68C-150.52 946.141 -302.403 36.7728 -323.645 24.1538M1141.05 1087.9C-233.805 1006.99 -392.377 36.8941 -413.619 24.2751M1141.14 1163.25C-358.136 1044.47 -478.398 23.853 -499.64 11.234M1141.21 1221.86C-412.289 1124.68 -567.041 29.9531 -588.284 17.3342M1141.28 1280.47C-498.244 1165.46 -633.18 45.5792 -654.423 32.9602M1141.36 1345.05C-531.252 1224.11 -707.303 24.1617 -728.545 11.5427M1141.43 1403.66C-520.58 1295.86 -793.308 24.2777 -814.55 11.6587M1141.51 1470.64C-586.605 1405.99 -864.732 45.8915 -885.974 33.2725" stroke="#DBA581" stroke-opacity="0.1" stroke-width="18" stroke-linecap="round"/>
</svg>
