<svg width="707" height="209" viewBox="0 0 707 209" fill="none" xmlns="http://www.w3.org/2000/svg">
<g clip-path="url(#clip0_13291_15091)">
<g clip-path="url(#clip1_13291_15091)">
<mask id="mask0_13291_15091" style="mask-type:luminance" maskUnits="userSpaceOnUse" x="0" y="0" width="707" height="209">
<path d="M706.095 0.0136719H0.824219V208.986H706.095V0.0136719Z" fill="white"/>
</mask>
<g mask="url(#mask0_13291_15091)">
<mask id="mask1_13291_15091" style="mask-type:luminance" maskUnits="userSpaceOnUse" x="0" y="0" width="707" height="209">
<path d="M706.095 0.0136719H0.824219V208.986H706.095V0.0136719Z" fill="white"/>
</mask>
<g mask="url(#mask1_13291_15091)">
<path d="M679.969 208.986H26.9498C12.5824 208.986 0.824219 197.227 0.824219 182.86V26.1392C0.824219 11.7718 12.5824 0.0136719 26.9498 0.0136719H679.969C694.337 0.0136719 706.095 11.7718 706.095 26.1392V182.86C706.095 197.227 694.337 208.986 679.969 208.986Z" fill="#12100B"/>
<path d="M679.969 4.19507C692.066 4.19507 701.913 14.0427 701.913 26.1392V182.86C701.913 194.957 692.066 204.804 679.969 204.804H26.9498C14.8532 204.804 5.00562 194.957 5.00562 182.86V26.1392C5.00562 14.0317 14.8423 4.19507 26.9498 4.19507H679.969ZM679.969 0.0136719H26.9498C12.5824 0.0136719 0.824219 11.7718 0.824219 26.1392V182.86C0.824219 197.227 12.5824 208.986 26.9498 208.986H679.969C694.337 208.986 706.095 197.227 706.095 182.86V26.1392C706.095 11.7718 694.337 0.0136719 679.969 0.0136719Z" fill="#AFACAB"/>
<path d="M356.778 113.644C344.496 113.644 334.473 122.989 334.473 135.872C334.473 148.754 344.485 158.089 356.778 158.089C369.071 158.089 379.082 148.656 379.082 135.872C379.082 123.087 369.071 113.644 356.778 113.644ZM356.778 149.333C350.042 149.333 344.234 143.776 344.234 135.872C344.234 127.967 350.042 122.399 356.778 122.399C363.514 122.399 369.311 127.869 369.311 135.872C369.311 143.874 363.503 149.333 356.778 149.333ZM308.119 113.644C295.836 113.644 285.814 122.989 285.814 135.872C285.814 148.754 295.825 158.089 308.119 158.089C320.412 158.089 330.423 148.656 330.423 135.872C330.423 123.087 320.401 113.644 308.119 113.644ZM308.119 149.333C301.393 149.333 295.585 143.776 295.585 135.872C295.585 127.967 301.393 122.399 308.119 122.399C314.844 122.399 320.663 127.869 320.663 135.872C320.663 143.874 314.855 149.333 308.119 149.333ZM250.245 120.467V129.889H272.8C272.124 135.195 270.366 139.06 267.669 141.756C264.383 145.042 259.252 148.656 250.245 148.656C236.358 148.656 225.495 137.466 225.495 123.579C225.495 109.692 236.347 98.5011 250.245 98.5011C257.734 98.5011 263.204 101.438 267.243 105.226L273.892 98.5775C268.248 93.1952 260.758 89.0684 250.245 89.0684C231.227 89.0684 215.232 104.56 215.232 123.579C215.232 142.597 231.227 158.089 250.245 158.089C260.507 158.089 268.248 154.715 274.318 148.405C280.541 142.182 282.484 133.426 282.484 126.352C282.484 124.168 282.32 122.148 281.982 120.467H250.256H250.245ZM486.947 127.782C485.091 122.814 479.458 113.644 467.929 113.644C456.4 113.644 446.978 122.651 446.978 135.872C446.978 148.329 456.4 158.089 469.021 158.089C479.207 158.089 485.091 151.866 487.537 148.241L479.96 143.186C477.427 146.887 473.988 149.333 469.01 149.333C464.031 149.333 460.505 147.062 458.234 142.608L487.941 130.315L486.936 127.793L486.947 127.782ZM456.651 135.195C456.4 126.603 463.3 122.236 468.267 122.236C472.143 122.236 475.429 124.168 476.521 126.952L456.662 135.206L456.651 135.195ZM432.491 156.735H442.251V91.4265H432.491V156.735ZM416.497 118.611H416.158C413.975 116.002 409.76 113.644 404.465 113.644C393.351 113.644 383.176 123.404 383.176 135.948C383.176 148.492 393.362 158.078 404.465 158.078C409.771 158.078 413.975 155.72 416.158 153.023H416.497V156.222C416.497 164.727 411.955 169.268 404.629 169.268C398.657 169.268 394.945 164.978 393.439 161.364L384.934 164.901C387.369 170.797 393.854 178.035 404.629 178.035C416.071 178.035 425.755 171.299 425.755 154.89V114.997H416.497V118.622V118.611ZM405.306 149.333C398.57 149.333 392.937 143.7 392.937 135.959C392.937 128.219 398.57 122.41 405.306 122.41C412.042 122.41 417.173 128.131 417.173 135.959C417.173 143.787 411.955 149.333 405.306 149.333ZM532.681 91.4375H509.328V156.746H519.066V132.007H532.681C543.489 132.007 554.101 124.179 554.101 111.722C554.101 99.2653 543.478 91.4375 532.681 91.4375ZM532.932 122.913H519.066V100.521H532.932C540.225 100.521 544.362 106.558 544.362 111.711C544.362 116.864 540.225 122.902 532.932 122.902M593.174 113.524C586.122 113.524 578.807 116.635 575.783 123.513L584.44 127.127C586.285 123.513 589.735 122.334 593.349 122.334C598.393 122.334 603.513 125.358 603.601 130.73V131.406C601.832 130.402 598.055 128.884 593.436 128.884C584.113 128.884 574.615 134.005 574.615 143.59C574.615 152.335 582.268 157.958 590.827 157.958C597.389 157.958 600.991 155.021 603.262 151.571H603.601V156.615H613.012V131.57C613.012 119.976 604.365 113.513 593.185 113.513M592.006 149.3C588.807 149.3 584.353 147.706 584.353 143.754C584.353 138.71 589.899 136.789 594.692 136.789C598.972 136.789 600.991 137.717 603.601 138.972C602.847 145.021 597.64 149.311 592.006 149.311M647.292 114.943L636.113 143.263H635.775L624.18 114.943H613.677L631.069 154.519L621.156 176.528H631.32L658.123 114.943H647.282H647.292ZM559.494 156.724H569.243V91.4156H559.494V156.724Z" fill="white"/>
<path d="M109.06 101.492L53.4355 160.523C53.4355 160.523 53.4355 160.545 53.4355 160.556C55.1387 166.965 60.9905 171.681 67.9449 171.681C70.7289 171.681 73.3272 170.928 75.5653 169.618L75.74 169.508L138.352 133.382L109.049 101.481L109.06 101.492Z" fill="#E43629"/>
<path d="M165.329 91.4376L165.275 91.4049L138.243 75.7383L107.794 102.836L138.352 133.383L165.231 117.869C169.947 115.314 173.146 110.347 173.146 104.626C173.146 98.9052 169.991 93.9923 165.318 91.4376" fill="#F9BD00"/>
<path d="M53.436 48.4766C53.0975 49.7102 52.9229 51.0094 52.9229 52.3414V156.658C52.9229 158.001 53.0975 159.289 53.436 160.523L110.96 102.999L53.436 48.4766Z" fill="#587DBE"/>
<path d="M109.464 104.505L138.254 75.7261L75.7182 39.4691C73.4473 38.1044 70.7944 37.3184 67.9558 37.3184C61.0123 37.3184 55.1496 42.0456 53.4355 48.4651C53.4355 48.4651 53.4355 48.4651 53.4355 48.476L109.475 104.505H109.464Z" fill="#30A043"/>
</g>
<path d="M219.108 36.085H224.109V49.6336H239.339V36.085H244.295V68.63H239.339V54.3609H224.109V68.63H219.108V36.085Z" fill="white"/>
<path d="M252.516 36.085H272.244V40.8122H257.516V49.9939H270.792V54.7211H257.516V63.9028H272.244V68.63H252.516V36.085Z" fill="white"/>
<path d="M279.242 36.085H285.149L299.876 59.9943H300.149L299.876 53.7167V36.085H304.833V68.63H299.647L284.199 43.4979H283.926L284.199 49.7755V68.6409H279.242V36.0959V36.085Z" fill="white"/>
<path d="M319.102 40.8122H309.964V36.085H333.185V40.8122H324.091V68.63H319.091V40.8122H319.102Z" fill="white"/>
<path d="M348.644 36.085H353.644V68.63H348.644V36.085Z" fill="white"/>
</g>
</g>
</g>
<defs>
<clipPath id="clip0_13291_15091">
<rect width="705.271" height="209" fill="white" transform="translate(0.824219)"/>
</clipPath>
<clipPath id="clip1_13291_15091">
<rect width="705.271" height="208.972" fill="white" transform="translate(0.824219 0.0136719)"/>
</clipPath>
</defs>
</svg>
