<svg width="57" height="60" viewBox="0 0 57 60" fill="none" xmlns="http://www.w3.org/2000/svg">
<path d="M2.36154 33.2617V30.8062M2.36154 30.8062C2.36154 30.8062 5.66814 25.4041 6.16325 25.4041C6.65835 25.4041 10.0887 30.8062 10.0887 30.8062M2.36154 30.8062H10.0887M10.0887 30.8062V33.2617M30.6003 21.5093C32.213 20.3583 33.288 20.5271 35.5867 21.5093M30.6003 19.5955C32.213 18.4445 35.8342 18.6303 38.0799 21.5093M30.5472 17.8851C32.16 16.7341 37.0543 16.4288 40.6085 21.5093M30.5472 15.9713C32.16 14.8203 39.4591 14.9048 42.7303 21.5093M30.6887 13.9565C33.3233 13.0758 41.5103 13.9565 44.9937 21.5093M30.6887 12.0427C33.8538 11.4332 42.1291 12.4154 47.4692 21.5093M30.6356 10.3322C34.8263 9.3503 44.6224 12.3307 49.7149 21.5093M30.6356 8.41841C33.3941 7.80913 44.9937 9.55352 51.8368 21.5093M30.6533 6.82754C36.0287 5.70942 47.9466 9.90914 54.1001 21.5093M30.6533 4.91373C36.0287 3.6265 49.7149 9.31644 55.0373 19.5955M30.6003 3.2033C38.3098 1.8484 48.8661 8.96081 52.2965 13.0758M30.6003 1.2895C32.213 0.138555 43.8443 2.4411 48.8661 7.80913M28.3015 21.7293C28.0051 21.5684 27.1706 21.6349 26.887 21.8139M28.0717 20.7979C26.7101 20.6285 25.6323 21.4486 25.3486 21.6277M28.0717 19.731C26.7101 19.5617 23.9524 21.5502 23.6688 21.7293M28.0717 18.6134C25.3486 18.8504 22.5555 21.5502 22.2719 21.7293M28.0717 17.7836C23.6688 17.8851 21.247 21.4486 20.9634 21.6277M28.0717 16.9538C22.6078 17.3094 20.0977 21.4486 19.814 21.6277M28.0717 15.9713C21.4408 16.2704 19.0191 21.5502 18.7354 21.7293M28.0717 15.1415C20.1323 15.7515 17.9404 21.5502 17.6568 21.7293M28.0717 14.3117C18.7354 15.1415 16.8441 21.4486 16.5605 21.6277M28.0717 13.4819C18.7354 13.9565 15.6064 21.4486 15.3227 21.6277M28.0717 12.6521C17.6568 13.2113 14.6338 21.4486 14.3502 21.6277M28.0717 11.8224C16.3306 12.6521 13.732 21.5502 13.4484 21.7293M28.0717 10.9926C15.5879 11.5538 12.7065 21.4486 12.4228 21.6277M28.0717 10.0107C14.7038 10.8479 11.5748 21.5502 11.2911 21.7293M28.0717 9.18095C13.2892 10.1801 10.6376 21.5502 10.354 21.7293M28.0717 8.28343C12.0161 9.4519 9.78888 21.5502 9.50521 21.7293M28.0717 7.33511C10.8137 8.57082 8.79867 21.4486 8.515 21.6277M28.0717 6.5392C9.69972 7.71085 7.59627 21.4486 7.3126 21.6277M28.0717 5.47234C8.03758 7.18271 6.44692 21.6349 6.16325 21.8139M28.0717 4.64256C7.3126 6.04811 5.2622 21.5502 4.97853 21.7293M28.0717 3.81278C6.16325 5.47234 4.37809 21.3302 4.09441 21.5093M28.0717 2.89833C5.72119 4.64256 3.38787 21.6349 3.1042 21.8139M28.0717 2.06855C5.86265 3.6265 2.23852 21.6349 1.95485 21.8139M28.0717 1.12023C4.97853 2.06855 1.28367 21.3302 1 21.5093" stroke="#2C1D01" stroke-width="0.5" stroke-linecap="round"/>
<path d="M30.6007 38.4545C32.215 39.6035 33.2897 39.4334 35.5871 38.4484M30.6033 40.3683C32.2175 41.5173 35.8385 41.3271 38.0803 38.4454M30.5525 42.0788C32.1668 43.2278 37.0615 43.5271 40.6089 38.4423M30.555 43.9926C32.1693 45.1416 39.4684 45.0482 42.7308 38.4397M30.6992 46.0072C33.335 46.8847 41.5208 45.994 44.9941 38.4369M30.7017 47.9211C33.8677 48.5266 42.1417 47.5343 47.4697 38.4339M30.651 49.6315C34.843 50.6083 44.635 47.6159 49.7153 38.4311M30.6535 51.5453C33.4128 52.1513 45.0101 50.3927 51.8372 38.4286M30.6733 53.1362C36.0503 54.2477 47.9625 50.0335 54.1005 38.4258M30.6759 55.05C36.053 56.3307 49.7316 50.624 55.0402 40.3384M30.6251 56.7605C38.3364 58.106 48.8833 50.9807 52.3082 46.8615M30.6277 58.6743C32.242 59.8233 43.8702 57.5065 48.8848 52.1323M28.3017 38.2374C28.0055 38.3986 27.1709 38.3331 26.887 38.1544M28.0731 39.169C26.7118 39.34 25.6328 38.5213 25.3489 38.3426M28.0745 40.2359C26.7132 40.4069 23.9529 38.4217 23.6689 38.243M28.076 41.3536C25.3526 41.1198 22.556 38.4235 22.272 38.2447M28.0771 42.1833C23.6741 42.0872 21.2476 38.5267 20.9637 38.3479M28.0782 43.0131C22.6139 42.6642 20.0982 38.5281 19.8143 38.3493M28.0795 43.9956C21.4482 43.7046 19.0195 38.4278 18.7356 38.2491M28.0806 44.8254C20.1404 44.2252 17.9409 38.4291 17.6569 38.2504M28.0817 45.6552C18.7444 44.8368 16.8447 38.532 16.5608 38.3533M28.0828 46.485C18.7459 46.0219 15.6069 38.5336 15.323 38.3548M28.0839 47.3148C17.6683 46.7683 14.6344 38.5347 14.3505 38.356M28.0851 48.1445C16.3429 47.3291 13.7325 38.4342 13.4486 38.2555M28.0862 48.9743C15.6017 48.4283 12.707 38.5371 12.4231 38.3584M28.0875 49.9562C14.7185 49.1354 11.5752 38.4369 11.2913 38.2582M28.0886 50.7859C13.3048 49.8049 10.6381 38.438 10.3541 38.2593M28.0898 51.6835C12.0327 50.5346 9.78931 38.4391 9.50539 38.2603M28.091 52.6318C10.8314 51.4172 8.79923 38.5419 8.51532 38.3632M28.0921 53.4277C9.71859 52.2785 7.59683 38.5434 7.31292 38.3646M28.0935 54.4946C8.05716 52.8087 6.44723 38.3585 6.16332 38.1798M28.0946 55.3243C7.33369 53.9442 5.26263 38.4446 4.97872 38.2659M28.0957 56.1541C6.18511 54.5213 4.37881 38.6657 4.09489 38.4869M28.097 57.0686C5.74416 55.3517 3.38819 38.3622 3.10428 38.1835M28.0981 57.8983C5.88697 56.3676 2.23884 38.3636 1.95492 38.1849M28.0993 58.8467C5.00493 57.9266 1.2844 38.6694 1.00049 38.4907" stroke="#2C1D01" stroke-width="0.5" stroke-linecap="round"/>
<path d="M13.5288 26.0587C14.0627 26.0847 14.7365 26.0977 15.5503 26.0977C17.8517 28.9819 19.0887 30.5183 19.2612 30.7071C19.4338 30.8927 19.52 30.9854 19.52 30.9854H19.5591C19.5721 30.3604 19.5786 29.8575 19.5786 29.4767C19.5786 28.7247 19.5623 27.8409 19.5298 26.8253C19.5233 26.5323 19.1619 26.3533 18.4458 26.2882C18.4328 26.2166 18.4263 26.1726 18.4263 26.1563C18.4263 26.1303 18.4328 26.0977 18.4458 26.0587C18.9699 26.0782 19.4338 26.088 19.8374 26.088C20.0978 26.088 20.534 26.0782 21.146 26.0587C21.159 26.0977 21.1655 26.1303 21.1655 26.1563C21.1655 26.2084 21.159 26.2524 21.146 26.2882C20.4331 26.3533 20.0734 26.5323 20.0669 26.8253C20.0278 27.8442 20.0083 28.8484 20.0083 29.838C20.0083 31.3517 20.0246 32.491 20.0571 33.256L19.9692 33.2657L15.1157 27.294H15.0669C15.0474 28.1371 15.0376 28.9884 15.0376 29.8477C15.0376 30.603 15.0539 31.4851 15.0864 32.4942C15.0929 32.7905 15.4526 32.9711 16.1655 33.0362C16.1818 33.0916 16.1899 33.1355 16.1899 33.1681C16.1899 33.2006 16.1818 33.2332 16.1655 33.2657C15.6479 33.2462 15.1857 33.2364 14.7788 33.2364C14.5184 33.2364 14.0822 33.2462 13.4702 33.2657C13.4539 33.2332 13.4458 33.2006 13.4458 33.1681C13.4458 33.1127 13.4539 33.0688 13.4702 33.0362C14.1896 32.9679 14.5493 32.7872 14.5493 32.4942C14.5884 31.4786 14.6079 30.476 14.6079 29.4864C14.6079 28.4122 14.5949 27.4796 14.5688 26.6886C14.2954 26.4509 13.9487 26.3175 13.5288 26.2882C13.5093 26.2459 13.4995 26.2084 13.4995 26.1759C13.4995 26.127 13.5093 26.088 13.5288 26.0587ZM22.6491 26.0587C23.3783 26.0847 23.9447 26.0977 24.3483 26.0977C24.752 26.0977 25.3184 26.0847 26.0476 26.0587C26.0606 26.1108 26.0671 26.1466 26.0671 26.1661C26.0671 26.2019 26.0606 26.2426 26.0476 26.2882C25.8978 26.3012 25.7757 26.3158 25.6813 26.3321C25.5902 26.3451 25.4763 26.3679 25.3396 26.4005C25.2061 26.433 25.1035 26.4802 25.0319 26.5421C24.9603 26.6007 24.9229 26.6723 24.9196 26.7569C24.8773 27.7205 24.8562 28.6108 24.8562 29.4278H24.9978L27.7663 26.7569C27.8086 26.6951 27.8298 26.6479 27.8298 26.6153C27.8298 26.5535 27.8119 26.503 27.7761 26.464C27.7435 26.4216 27.6817 26.3907 27.5905 26.3712C27.5026 26.3484 27.4131 26.3321 27.322 26.3224C27.2341 26.3126 27.1022 26.3012 26.9265 26.2882C26.9134 26.2296 26.9069 26.1889 26.9069 26.1661C26.9069 26.1466 26.9134 26.1108 26.9265 26.0587C27.6621 26.0847 28.1455 26.0977 28.3767 26.0977C28.5362 26.0977 28.9838 26.0847 29.7194 26.0587C29.7325 26.1108 29.739 26.1466 29.739 26.1661C29.739 26.1889 29.7325 26.2296 29.7194 26.2882C29.5795 26.3012 29.4672 26.3142 29.3825 26.3272C29.3011 26.3403 29.1953 26.363 29.0651 26.3956C28.9382 26.4249 28.8161 26.4705 28.6989 26.5323C28.585 26.5909 28.4743 26.6658 28.3669 26.7569L25.8474 29.1544L28.9479 32.3087C29.4688 32.7742 29.9261 33.0167 30.32 33.0362C30.333 33.0883 30.3396 33.1323 30.3396 33.1681C30.3396 33.2071 30.333 33.2429 30.32 33.2755C29.848 33.2494 29.3272 33.2364 28.7575 33.2364C28.2465 33.2364 27.6296 33.2494 26.9069 33.2755C26.8939 33.2364 26.8874 33.1974 26.8874 33.1583C26.8874 33.116 26.8939 33.0753 26.9069 33.0362C27.2227 33.0265 27.431 32.9988 27.5319 32.9532C27.6361 32.9044 27.6882 32.8214 27.6882 32.7042C27.6882 32.6619 27.6768 32.6212 27.654 32.5821C27.6312 32.5431 27.5905 32.4926 27.5319 32.4308C27.4766 32.3657 27.4424 32.325 27.4294 32.3087L25.0466 29.838L24.8562 29.8477C24.8562 30.5444 24.8741 31.4509 24.9099 32.5675C24.9131 32.6521 24.9506 32.7254 25.0222 32.7872C25.0938 32.8458 25.1963 32.8914 25.3298 32.9239C25.4665 32.9565 25.5804 32.9809 25.6716 32.9972C25.766 33.0102 25.8881 33.0232 26.0378 33.0362C26.0508 33.0753 26.0573 33.1192 26.0573 33.1681C26.0573 33.1941 26.0508 33.2267 26.0378 33.2657C25.4844 33.2462 24.918 33.2364 24.3386 33.2364C23.7526 33.2364 23.1862 33.2462 22.6394 33.2657C22.6263 33.2267 22.6198 33.1941 22.6198 33.1681C22.6198 33.1127 22.6263 33.0688 22.6394 33.0362C22.737 33.0265 22.8151 33.0183 22.8737 33.0118C22.9323 33.0053 23.0121 32.9939 23.113 32.9776C23.2172 32.9614 23.3002 32.9435 23.362 32.9239C23.4271 32.9011 23.4938 32.8735 23.5622 32.8409C23.6306 32.8084 23.681 32.7693 23.7136 32.7237C23.7494 32.6782 23.7673 32.6261 23.7673 32.5675C23.8063 31.5486 23.8259 30.5216 23.8259 29.4864C23.8259 28.4317 23.8096 27.5219 23.7771 26.7569C23.7738 26.6723 23.7364 26.6007 23.6647 26.5421C23.5931 26.4802 23.489 26.433 23.3522 26.4005C23.2188 26.3679 23.1049 26.3451 23.0104 26.3321C22.9193 26.3158 22.7989 26.3012 22.6491 26.2882C22.6361 26.2296 22.6296 26.1889 22.6296 26.1661C22.6296 26.1336 22.6361 26.0977 22.6491 26.0587ZM31.7743 26.0587C32.51 26.0847 33.0878 26.0977 33.5077 26.0977C33.9049 26.0977 34.4713 26.0847 35.2069 26.0587C35.22 26.1108 35.2265 26.1466 35.2265 26.1661C35.2265 26.2019 35.22 26.2426 35.2069 26.2882C35.0572 26.3012 34.9351 26.3158 34.8407 26.3321C34.7463 26.3451 34.6308 26.3679 34.494 26.4005C34.3573 26.433 34.2532 26.4802 34.1815 26.5421C34.1099 26.6007 34.0741 26.6723 34.0741 26.7569C34.0709 26.9685 34.066 27.4649 34.0595 28.2462C34.0562 29.0274 34.0513 29.7582 34.0448 30.4386C34.0383 30.9822 34.0285 31.4282 34.0155 31.7765C34.0058 32.1215 33.983 32.5056 33.9472 32.9288C33.9146 33.3487 33.8674 33.6856 33.8056 33.9395C33.747 34.1967 33.6656 34.4588 33.5614 34.7257C33.4573 34.9959 33.3303 35.2026 33.1806 35.3458C33.0341 35.489 32.8534 35.6062 32.6386 35.6974C32.4237 35.7885 32.1763 35.8341 31.8964 35.8341C31.4244 35.8341 31.0582 35.7185 30.7978 35.4874C30.5373 35.2563 30.4071 34.9828 30.4071 34.6671C30.4071 34.3969 30.4787 34.1869 30.622 34.0372C30.7652 33.8907 30.954 33.8175 31.1884 33.8175C31.3804 33.8175 31.5448 33.8696 31.6815 33.9737C31.8183 34.0779 31.8866 34.2325 31.8866 34.4376C31.8866 34.5483 31.859 34.6459 31.8036 34.7306C31.7483 34.8185 31.6864 34.8819 31.6181 34.921C31.553 34.9633 31.4927 35.0007 31.4374 35.0333C31.3821 35.0691 31.3544 35.0935 31.3544 35.1065C31.3544 35.2302 31.4016 35.3311 31.496 35.4093C31.5937 35.4874 31.7271 35.5265 31.8964 35.5265C32.0787 35.5265 32.2317 35.4923 32.3554 35.4239C32.4823 35.3556 32.5849 35.2595 32.663 35.1358C32.7444 35.0121 32.8062 34.8396 32.8485 34.6183C32.8909 34.3969 32.9185 34.1609 32.9315 33.9102C32.9478 33.6596 32.956 33.3455 32.956 32.9679C32.956 29.7517 32.9397 27.6814 32.9071 26.7569C32.9039 26.6723 32.8664 26.6007 32.7948 26.5421C32.7232 26.4802 32.619 26.433 32.4823 26.4005C32.3456 26.3679 32.23 26.3451 32.1356 26.3321C32.0445 26.3158 31.9241 26.3012 31.7743 26.2882C31.7613 26.2296 31.7548 26.1889 31.7548 26.1661C31.7548 26.1336 31.7613 26.0977 31.7743 26.0587ZM40.2306 26.0587C40.5073 26.0685 40.7872 26.0782 41.0704 26.088C41.3569 26.0945 41.6466 26.0977 41.9396 26.0977H42.5011C42.8396 26.0945 43.1684 26.0929 43.4874 26.0929C43.8064 26.0929 44.1238 26.0929 44.4396 26.0929C44.7553 26.0896 45.0727 26.0864 45.3917 26.0831C45.7107 26.0766 46.0395 26.0685 46.378 26.0587C46.4008 26.241 46.4366 26.4168 46.4854 26.586C46.5375 26.752 46.5961 26.9115 46.6612 27.0645C46.7263 27.2175 46.7963 27.3657 46.8712 27.5089C46.9493 27.6489 47.0258 27.7839 47.1007 27.9142C47.0746 27.9695 47.0177 28.0134 46.9298 28.046C46.8191 27.8409 46.6791 27.6456 46.5099 27.4601C46.3438 27.2745 46.1306 27.1085 45.8702 26.962C45.6131 26.8155 45.3022 26.6935 44.9376 26.5958C44.5763 26.4949 44.1466 26.4282 43.6485 26.3956H42.5011C42.4913 26.7146 42.4815 27.0125 42.4718 27.2892C42.4653 27.5658 42.4588 27.8311 42.4522 28.0851C42.449 28.3357 42.4457 28.5782 42.4425 28.8126C42.4425 29.047 42.4425 29.2781 42.4425 29.506H43.629C43.8471 29.506 44.0294 29.4669 44.1759 29.3888C44.3256 29.3074 44.4558 29.1983 44.5665 29.0616C44.6804 28.9216 44.7846 28.7605 44.879 28.5782C44.9734 28.3959 45.0743 28.2022 45.1817 27.9972C45.2208 28.0134 45.2582 28.0313 45.294 28.0509C45.3298 28.0704 45.3559 28.0948 45.3722 28.1241C45.3038 28.2413 45.2387 28.3699 45.1769 28.5099C45.1183 28.6466 45.0662 28.7833 45.0206 28.92C44.9783 29.0567 44.9441 29.1886 44.9181 29.3155C44.892 29.4425 44.879 29.5564 44.879 29.6573C44.879 29.9275 44.9262 30.1928 45.0206 30.4532C45.1183 30.7104 45.2354 30.9545 45.3722 31.1856C45.3559 31.2149 45.3298 31.241 45.294 31.2638C45.2582 31.2833 45.2208 31.3012 45.1817 31.3175C45.0776 31.1287 44.9783 30.9431 44.8839 30.7608C44.7895 30.5785 44.6853 30.4174 44.5714 30.2774C44.4607 30.1375 44.3305 30.0252 44.1808 29.9405C44.031 29.8526 43.8471 29.8087 43.629 29.8087H42.4425C42.4425 30.0593 42.4425 30.3002 42.4425 30.5313C42.4457 30.7592 42.449 30.9985 42.4522 31.2491C42.4588 31.4998 42.4653 31.7634 42.4718 32.0401C42.4783 32.3168 42.4848 32.6163 42.4913 32.9386H43.8487C44.3468 32.906 44.7765 32.8409 45.1378 32.7433C45.5024 32.6423 45.8132 32.5186 46.0704 32.3722C46.3308 32.2257 46.544 32.0597 46.7101 31.8741C46.8793 31.6886 47.0193 31.4933 47.13 31.2882C47.169 31.3045 47.2032 31.3224 47.2325 31.3419C47.2618 31.3614 47.2846 31.3858 47.3009 31.4151C47.226 31.5551 47.1495 31.6951 47.0714 31.8351C46.9965 31.9718 46.9265 32.1134 46.8614 32.2599C46.7963 32.4063 46.7377 32.561 46.6856 32.7237C46.6368 32.8832 46.601 33.0541 46.5782 33.2364H42.4913C42.3253 33.2364 42.143 33.2364 41.9444 33.2364C41.7491 33.2397 41.5489 33.2413 41.3438 33.2413C41.142 33.2446 40.9435 33.2478 40.7481 33.2511C40.5528 33.2576 40.3771 33.2625 40.2208 33.2657C40.2143 33.2494 40.2094 33.2332 40.2062 33.2169C40.2029 33.2006 40.2013 33.1843 40.2013 33.1681C40.2013 33.1453 40.2029 33.1241 40.2062 33.1046C40.2094 33.0851 40.2143 33.0623 40.2208 33.0362C40.325 33.0265 40.4422 33.0134 40.5724 32.9972C40.7026 32.9809 40.8246 32.9565 40.9386 32.9239C41.0525 32.8881 41.1485 32.8425 41.2267 32.7872C41.3048 32.7319 41.3455 32.6586 41.3487 32.5675C41.365 32.1085 41.378 31.6511 41.3878 31.1954C41.3976 30.7364 41.4057 30.2742 41.4122 29.8087H39.5421L37.9503 32.5284C37.9405 32.5545 37.9291 32.5854 37.9161 32.6212C37.9063 32.6537 37.9015 32.6749 37.9015 32.6847C37.9015 32.7628 37.934 32.823 37.9991 32.8653C38.0675 32.9076 38.1505 32.9402 38.2481 32.963C38.3491 32.9825 38.4565 32.9972 38.5704 33.0069C38.6876 33.0134 38.795 33.0232 38.8927 33.0362C38.8992 33.0558 38.9041 33.0769 38.9073 33.0997C38.9106 33.1225 38.9122 33.1453 38.9122 33.1681C38.9122 33.1843 38.9106 33.2022 38.9073 33.2218C38.9041 33.238 38.8992 33.256 38.8927 33.2755C38.756 33.2722 38.6306 33.2673 38.5167 33.2608C38.4028 33.2576 38.2953 33.2527 38.1944 33.2462C38.0968 33.2429 38.004 33.2397 37.9161 33.2364C37.8315 33.2364 37.7468 33.2364 37.6622 33.2364C37.4897 33.2364 37.2879 33.2397 37.0567 33.2462C36.8289 33.256 36.5766 33.2657 36.2999 33.2755C36.2934 33.2592 36.2885 33.2397 36.2853 33.2169C36.282 33.1941 36.2804 33.1746 36.2804 33.1583C36.2804 33.1355 36.282 33.1143 36.2853 33.0948C36.2885 33.072 36.2934 33.0525 36.2999 33.0362C36.5571 33.0069 36.7882 32.9548 36.9933 32.88C37.2016 32.8018 37.3513 32.6879 37.4425 32.5382L41.0411 26.4347C40.9207 26.3891 40.7856 26.3582 40.6358 26.3419C40.4861 26.3224 40.351 26.3045 40.2306 26.2882C40.2241 26.2654 40.2192 26.2442 40.2159 26.2247C40.2127 26.2052 40.211 26.1856 40.211 26.1661C40.211 26.1466 40.2127 26.1287 40.2159 26.1124C40.2192 26.0961 40.2241 26.0782 40.2306 26.0587ZM41.339 26.7179L39.7228 29.506H41.4122V29.4864C41.4122 29.0339 41.409 28.575 41.4024 28.1095C41.3959 27.644 41.3813 27.1801 41.3585 26.7179H41.339ZM48.6819 26.0587C49.3851 26.0847 49.9515 26.0977 50.3812 26.0977C50.5439 26.0977 50.806 26.0912 51.1673 26.0782C51.5286 26.0652 51.8069 26.0587 52.0022 26.0587C52.7249 26.0587 53.2929 26.241 53.7063 26.6056C54.123 26.9701 54.3313 27.4438 54.3313 28.0265C54.3313 28.4952 54.193 28.9151 53.9163 29.2862C53.6396 29.6541 53.262 29.9177 52.7835 30.0772C53.0016 30.4679 53.3011 30.9106 53.6819 31.4054C54.0498 31.8969 54.3997 32.2826 54.7317 32.5626C55.067 32.8425 55.4267 33.0004 55.8108 33.0362C55.8239 33.0883 55.8304 33.129 55.8304 33.1583C55.8304 33.1908 55.8239 33.2267 55.8108 33.2657C55.6155 33.256 55.4072 33.2494 55.1858 33.2462C54.9645 33.2429 54.7171 33.2413 54.4437 33.2413C54.1735 33.2413 53.9651 33.2397 53.8187 33.2364C52.943 32.2175 52.2399 31.2149 51.7093 30.2286C51.4716 30.2286 51.1982 30.1912 50.889 30.1163C50.889 30.7478 50.9069 31.5649 50.9427 32.5675C50.9459 32.6521 50.9834 32.7254 51.055 32.7872C51.1266 32.8458 51.2291 32.8914 51.3626 32.9239C51.4993 32.9565 51.6132 32.9809 51.7044 32.9972C51.7988 33.0102 51.9209 33.0232 52.0706 33.0362C52.0836 33.1013 52.0901 33.1453 52.0901 33.1681C52.0901 33.1941 52.0836 33.2267 52.0706 33.2657C51.5172 33.2462 50.9508 33.2364 50.3714 33.2364C49.7854 33.2364 49.219 33.2462 48.6722 33.2657C48.6591 33.2267 48.6526 33.1941 48.6526 33.1681C48.6526 33.1127 48.6591 33.0688 48.6722 33.0362C48.7698 33.0265 48.8479 33.0183 48.9065 33.0118C48.9651 33.0053 49.0449 32.9939 49.1458 32.9776C49.25 32.9614 49.333 32.9435 49.3948 32.9239C49.4599 32.9011 49.5267 32.8735 49.595 32.8409C49.6634 32.8084 49.7138 32.7693 49.7464 32.7237C49.7822 32.6782 49.8001 32.6261 49.8001 32.5675C49.8392 31.5486 49.8587 30.5216 49.8587 29.4864C49.8587 28.4317 49.8424 27.5219 49.8099 26.7569C49.8066 26.6723 49.7692 26.6007 49.6976 26.5421C49.6259 26.4802 49.5218 26.433 49.3851 26.4005C49.2516 26.3679 49.1377 26.3451 49.0433 26.3321C48.9521 26.3158 48.8317 26.3012 48.6819 26.2882C48.6689 26.2296 48.6624 26.1889 48.6624 26.1661C48.6624 26.1466 48.6689 26.1108 48.6819 26.0587ZM50.9524 26.3956H50.9427C50.9069 27.5968 50.889 28.7133 50.889 29.7452C51.1168 29.8201 51.3479 29.8575 51.5823 29.8575C51.7972 29.8575 51.9892 29.8217 52.1585 29.7501C52.331 29.6752 52.4726 29.5776 52.5833 29.4571C52.694 29.3367 52.7851 29.1951 52.8567 29.0323C52.9316 28.8696 52.9837 28.7052 53.013 28.5392C53.0455 28.3731 53.0618 28.2022 53.0618 28.0265C53.0618 27.5414 52.9284 27.1459 52.6614 26.8399C52.3978 26.5307 52.0218 26.3761 51.5335 26.3761C51.2926 26.3761 51.0989 26.3826 50.9524 26.3956Z" fill="#2C1D01"/>
</svg>
