<svg width="138" height="144" viewBox="0 0 138 144" fill="none" xmlns="http://www.w3.org/2000/svg">
<g clip-path="url(#clip0_214_2805)">
<path d="M6 82V77M6 77C6 77 14.1305 66 15.3478 66C16.5653 65.9999 25 77 25 77M6 77H25M25 77V82" stroke="#2C1D01" stroke-width="2" stroke-linecap="round"/>
<path d="M73.4158 93.6991C77.365 96.5121 79.9943 96.0957 85.6147 93.6842M73.4221 98.3846C77.3713 101.198 86.2297 100.732 91.7142 93.6767M73.2979 102.572C77.2471 105.385 89.2218 106.118 97.9002 93.6691M73.3041 107.258C77.2533 110.071 95.1099 109.842 103.091 93.6628M73.6567 112.19C80.1051 114.338 100.131 112.158 108.628 93.656M73.663 116.876C81.4083 118.358 101.65 115.929 114.684 93.6486M73.5388 121.063C83.7943 123.455 107.75 116.129 120.178 93.6419M73.545 125.749C80.2954 127.232 108.667 122.927 125.369 93.6355M73.5935 129.644C86.7477 132.365 115.89 122.047 130.906 93.6287M73.5997 134.329C86.7545 137.465 120.218 123.493 133.205 98.3114M73.4755 138.517C92.3407 141.811 118.143 124.366 126.522 114.282M73.4818 143.203C77.431 146.016 105.879 140.344 118.147 127.186M67.7915 93.1674C67.0667 93.5622 65.0251 93.4019 64.3305 92.9644M67.2322 95.4484C63.9018 95.8671 61.2622 93.8625 60.5676 93.4249M67.2356 98.0604C63.9053 98.4791 57.1523 93.6189 56.4577 93.1813M67.2393 100.797C60.5767 100.224 53.7349 93.623 53.0403 93.1855M67.242 102.828C56.4703 102.593 50.5341 93.8757 49.8395 93.4382M67.2447 104.86C53.8766 104.005 47.7223 93.8792 47.0277 93.4416M67.2479 107.265C51.025 106.553 45.0832 93.6336 44.3886 93.1961M67.2506 109.297C47.8255 107.827 42.4444 93.6369 41.7498 93.1993M67.2533 111.328C44.4101 109.325 39.7627 93.8889 39.0681 93.4513M67.256 113.36C44.414 112.226 36.7346 93.8926 36.04 93.4551M67.2587 115.391C41.7776 114.053 34.3554 93.8955 33.6608 93.458M67.2614 117.423C38.535 115.426 32.1489 93.6495 31.4543 93.2119M67.2641 119.454C36.7218 118.118 29.6402 93.9013 28.9456 93.4637M67.2673 121.858C34.5611 119.849 26.8713 93.6559 26.1767 93.2184M67.2701 123.89C31.1026 121.488 24.5786 93.6587 23.884 93.2212M67.273 126.087C27.9904 123.274 22.5022 93.6613 21.8076 93.2237M67.2761 128.409C25.0517 125.435 20.08 93.913 19.3855 93.4754M67.2787 130.357C22.3292 127.544 17.1385 93.9166 16.4439 93.479M67.2822 132.969C18.2646 128.842 14.3261 93.464 13.6315 93.0264M67.2849 135.001C16.4947 131.622 11.428 93.6748 10.7334 93.2373M67.2876 137.032C13.6848 133.035 9.2658 94.216 8.57123 93.7785M67.2905 139.271C12.606 135.068 6.84233 93.4731 6.14775 93.0356M67.2933 141.303C12.9554 137.555 4.03052 93.4766 3.33595 93.039M67.2963 143.625C10.7976 141.372 1.69555 94.2253 1.00098 93.7877" stroke="#2C1D01" stroke-linecap="round"/>
<path d="M31.2075 65C32.5421 65.0651 34.2267 65.0976 36.2612 65.0976C42.0148 72.3079 45.1072 76.1491 45.5386 76.6211C45.9699 77.0849 46.1855 77.3169 46.1855 77.3169H46.2832C46.3157 75.7544 46.332 74.4971 46.332 73.5449C46.332 71.665 46.2913 69.4555 46.2099 66.9165C46.1937 66.1841 45.2903 65.7365 43.5 65.5737C43.4674 65.3947 43.4512 65.2848 43.4512 65.2441C43.4512 65.179 43.4674 65.0976 43.5 65C44.8102 65.0488 45.9699 65.0732 46.979 65.0732C47.63 65.0732 48.7205 65.0488 50.2505 65C50.283 65.0976 50.2993 65.179 50.2993 65.2441C50.2993 65.3743 50.283 65.4842 50.2505 65.5737C48.4682 65.7365 47.569 66.1841 47.5527 66.9165C47.4551 69.4637 47.4062 71.9743 47.4062 74.4482C47.4062 78.2324 47.4469 81.0807 47.5283 82.9931L47.3086 83.0176L35.1748 68.0884H35.0527C35.0039 70.1961 34.9795 72.3242 34.9795 74.4726C34.9795 76.3607 35.0202 78.5661 35.1015 81.0888C35.1178 81.8294 36.0171 82.2811 37.7993 82.4438C37.84 82.5822 37.8603 82.692 37.8603 82.7734C37.8603 82.8548 37.84 82.9362 37.7993 83.0176C36.5054 82.9687 35.3498 82.9443 34.3325 82.9443C33.6815 82.9443 32.591 82.9687 31.061 83.0176C31.0203 82.9362 31 82.8548 31 82.7734C31 82.6351 31.0203 82.5252 31.061 82.4438C32.8595 82.2729 33.7588 81.8213 33.7588 81.0888C33.8564 78.5498 33.9053 76.0433 33.9053 73.5693C33.9053 70.8838 33.8727 68.5522 33.8076 66.5747C33.124 65.9806 32.2573 65.647 31.2075 65.5737C31.1587 65.4679 31.1343 65.3743 31.1343 65.293C31.1343 65.1709 31.1587 65.0732 31.2075 65ZM54.0083 65C55.8312 65.0651 57.2472 65.0976 58.2563 65.0976C59.2654 65.0976 60.6815 65.0651 62.5044 65C62.5369 65.1302 62.5532 65.2197 62.5532 65.2685C62.5532 65.3581 62.5369 65.4598 62.5044 65.5737C62.13 65.6063 61.8248 65.6429 61.5888 65.6836C61.361 65.7161 61.0762 65.7731 60.7344 65.8545C60.4007 65.9359 60.1443 66.0539 59.9653 66.2085C59.7863 66.355 59.6927 66.534 59.6845 66.7456C59.5788 69.1544 59.5259 71.3802 59.5259 73.4228H59.8799L66.8012 66.7456C66.907 66.591 66.9599 66.473 66.9599 66.3916C66.9599 66.237 66.9152 66.1108 66.8257 66.0132C66.7443 65.9074 66.5897 65.8301 66.3618 65.7812C66.1421 65.7243 65.9183 65.6836 65.6904 65.6592C65.4707 65.6347 65.1411 65.6063 64.7016 65.5737C64.6691 65.4272 64.6528 65.3255 64.6528 65.2685C64.6528 65.2197 64.6691 65.1302 64.7016 65C66.5408 65.0651 67.7493 65.0976 68.3271 65.0976C68.7259 65.0976 69.8449 65.0651 71.6841 65C71.7166 65.1302 71.7329 65.2197 71.7329 65.2685C71.7329 65.3255 71.7166 65.4272 71.6841 65.5737C71.3341 65.6063 71.0534 65.6388 70.8418 65.6714C70.6383 65.7039 70.3738 65.7609 70.0483 65.8423C69.7309 65.9155 69.4258 66.0294 69.1328 66.1841C68.848 66.3305 68.5713 66.5177 68.3027 66.7456L62.0039 72.7392L69.7554 80.625C71.0574 81.7887 72.2008 82.395 73.1855 82.4438C73.2181 82.574 73.2344 82.6839 73.2344 82.7734C73.2344 82.8711 73.2181 82.9606 73.1855 83.042C72.0055 82.9769 70.7034 82.9443 69.2793 82.9443C68.0016 82.9443 66.4595 82.9769 64.6528 83.042C64.6203 82.9443 64.604 82.8467 64.604 82.749C64.604 82.6432 64.6203 82.5415 64.6528 82.4438C65.4422 82.4194 65.963 82.3502 66.2153 82.2363C66.4757 82.1142 66.6059 81.9067 66.6059 81.6138C66.6059 81.508 66.5775 81.4062 66.5205 81.3086C66.4635 81.2109 66.3618 81.0848 66.2153 80.9302C66.077 80.7674 65.9915 80.6657 65.959 80.625L60.0019 74.4482L59.5259 74.4726C59.5259 76.2142 59.5706 78.4806 59.6601 81.272C59.6683 81.4835 59.7619 81.6666 59.9409 81.8213C60.1199 81.9678 60.3763 82.0817 60.7099 82.1631C61.0517 82.2444 61.3366 82.3055 61.5644 82.3462C61.8004 82.3787 62.1056 82.4113 62.48 82.4438C62.5125 82.5415 62.5288 82.6513 62.5288 82.7734C62.5288 82.8385 62.5125 82.9199 62.48 83.0176C61.0965 82.9687 59.6805 82.9443 58.2319 82.9443C56.7671 82.9443 55.3511 82.9687 53.9839 83.0176C53.9513 82.9199 53.935 82.8385 53.935 82.7734C53.935 82.6351 53.9513 82.5252 53.9839 82.4438C54.228 82.4194 54.4233 82.3991 54.5698 82.3828C54.7163 82.3665 54.9157 82.338 55.1679 82.2973C55.4284 82.2567 55.6359 82.2119 55.7905 82.1631C55.9533 82.1061 56.1201 82.0369 56.291 81.9555C56.4619 81.8742 56.588 81.7765 56.6694 81.6626C56.7589 81.5486 56.8037 81.4184 56.8037 81.272C56.9013 78.7248 56.9502 76.1572 56.9502 73.5693C56.9502 70.9326 56.9095 68.658 56.8281 66.7456C56.82 66.534 56.7264 66.355 56.5473 66.2085C56.3683 66.0539 56.1079 65.9359 55.7661 65.8545C55.4324 65.7731 55.1476 65.7161 54.9116 65.6836C54.6837 65.6429 54.3826 65.6063 54.0083 65.5737C53.9757 65.4272 53.9595 65.3255 53.9595 65.2685C53.9595 65.1872 53.9757 65.0976 54.0083 65ZM76.8213 65C78.6605 65.0651 80.105 65.0976 81.1548 65.0976C82.1476 65.0976 83.5636 65.0651 85.4028 65C85.4354 65.1302 85.4516 65.2197 85.4516 65.2685C85.4516 65.3581 85.4354 65.4598 85.4028 65.5737C85.0285 65.6063 84.7233 65.6429 84.4873 65.6836C84.2513 65.7161 83.9624 65.7731 83.6206 65.8545C83.2788 65.9359 83.0184 66.0539 82.8393 66.2085C82.6603 66.355 82.5708 66.534 82.5708 66.7456C82.5626 67.2746 82.5504 68.5156 82.5342 70.4687C82.526 72.4219 82.5138 74.2488 82.4975 75.9497C82.4813 77.3087 82.4568 78.4236 82.4243 79.2944C82.3999 80.157 82.3429 81.1173 82.2534 82.1753C82.172 83.2251 82.054 84.0674 81.8994 84.7021C81.7529 85.345 81.5495 86.0001 81.289 86.6675C81.0286 87.3429 80.7112 87.8597 80.3369 88.2178C79.9707 88.5758 79.519 88.8688 78.9819 89.0967C78.4448 89.3245 77.8263 89.4385 77.1264 89.4385C75.9464 89.4385 75.0309 89.1496 74.3799 88.5718C73.7288 87.994 73.4033 87.3104 73.4033 86.521C73.4033 85.8455 73.5823 85.3206 73.9404 84.9463C74.2985 84.5801 74.7705 84.397 75.3564 84.397C75.8366 84.397 76.2475 84.5272 76.5893 84.7876C76.9311 85.048 77.102 85.4346 77.102 85.9472C77.102 86.2239 77.0329 86.4681 76.8945 86.6797C76.7562 86.8994 76.6015 87.0581 76.4306 87.1557C76.2679 87.2615 76.1173 87.3551 75.979 87.4365C75.8406 87.526 75.7715 87.5871 75.7715 87.6196C75.7715 87.9289 75.8895 88.1811 76.1255 88.3764C76.3696 88.5718 76.7033 88.6694 77.1264 88.6694C77.5822 88.6694 77.9647 88.584 78.2739 88.4131C78.5913 88.2422 78.8476 88.0021 79.0429 87.6929C79.2464 87.3836 79.401 86.9523 79.5068 86.3989C79.6126 85.8455 79.6818 85.2555 79.7143 84.6289C79.755 84.0023 79.7754 83.2169 79.7754 82.2729C79.7754 74.2326 79.7347 69.0568 79.6533 66.7456C79.6452 66.534 79.5516 66.355 79.3725 66.2085C79.1935 66.0539 78.9331 65.9359 78.5913 65.8545C78.2495 65.7731 77.9606 65.7161 77.7246 65.6836C77.4967 65.6429 77.1956 65.6063 76.8213 65.5737C76.7887 65.4272 76.7724 65.3255 76.7724 65.2685C76.7724 65.1872 76.7887 65.0976 76.8213 65ZM97.9619 65C98.6536 65.0244 99.3535 65.0488 100.062 65.0732C100.778 65.0895 101.502 65.0976 102.235 65.0976H103.639C104.485 65.0895 105.307 65.0854 106.104 65.0854C106.902 65.0854 107.695 65.0854 108.485 65.0854C109.274 65.0773 110.068 65.0692 110.865 65.061C111.663 65.0447 112.485 65.0244 113.331 65C113.388 65.4557 113.477 65.8952 113.599 66.3183C113.73 66.7334 113.876 67.1321 114.039 67.5146C114.202 67.8971 114.377 68.2674 114.564 68.6255C114.759 68.9754 114.95 69.3131 115.138 69.6387C115.072 69.777 114.93 69.8869 114.71 69.9682C114.434 69.4555 114.084 68.9673 113.661 68.5034C113.245 68.0395 112.712 67.6245 112.061 67.2583C111.419 66.8921 110.641 66.5869 109.73 66.3428C108.827 66.0905 107.752 65.9236 106.507 65.8423H103.639C103.614 66.6398 103.59 67.3844 103.565 68.0762C103.549 68.7679 103.533 69.4311 103.516 70.0659C103.508 70.6925 103.5 71.2988 103.492 71.8847C103.492 72.4707 103.492 73.0485 103.492 73.6181H106.458C107.004 73.6181 107.459 73.5205 107.826 73.3252C108.2 73.1217 108.525 72.8491 108.802 72.5073C109.087 72.1574 109.347 71.7545 109.583 71.2988C109.819 70.8431 110.072 70.3589 110.34 69.8462C110.438 69.8869 110.531 69.9316 110.621 69.9805C110.711 70.0293 110.776 70.0903 110.816 70.1636C110.645 70.4565 110.483 70.778 110.328 71.1279C110.182 71.4697 110.051 71.8115 109.937 72.1533C109.832 72.4951 109.746 72.8247 109.681 73.1421C109.616 73.4595 109.583 73.7443 109.583 73.9966C109.583 74.672 109.701 75.3353 109.937 75.9863C110.182 76.6292 110.475 77.2396 110.816 77.8174C110.776 77.8906 110.711 77.9557 110.621 78.0127C110.531 78.0615 110.438 78.1063 110.34 78.147C110.08 77.6749 109.832 77.2111 109.596 76.7554C109.36 76.2996 109.099 75.8968 108.814 75.5469C108.538 75.1969 108.212 74.9162 107.838 74.7046C107.463 74.4848 107.004 74.375 106.458 74.375H103.492C103.492 75.0016 103.492 75.6038 103.492 76.1816C103.5 76.7513 103.508 77.3494 103.516 77.9761C103.533 78.6027 103.549 79.2619 103.565 79.9536C103.582 80.6453 103.598 81.394 103.614 82.1997H107.008C108.253 82.1183 109.327 81.9555 110.23 81.7114C111.142 81.4591 111.919 81.1499 112.562 80.7837C113.213 80.4175 113.746 80.0024 114.161 79.5386C114.584 79.0747 114.934 78.5864 115.211 78.0737C115.308 78.1144 115.394 78.1592 115.467 78.208C115.54 78.2568 115.597 78.3179 115.638 78.3911C115.451 78.741 115.26 79.091 115.064 79.4409C114.877 79.7827 114.702 80.1367 114.539 80.5029C114.377 80.8691 114.23 81.2557 114.1 81.6626C113.978 82.0613 113.888 82.4886 113.831 82.9443H103.614C103.199 82.9443 102.743 82.9443 102.247 82.9443C101.759 82.9525 101.258 82.9565 100.745 82.9565C100.241 82.9647 99.7446 82.9728 99.2558 82.9809C98.7676 82.9972 98.3281 83.0094 97.9375 83.0176C97.9212 82.9769 97.909 82.9362 97.9009 82.8955C97.8927 82.8548 97.8887 82.8141 97.8887 82.7734C97.8887 82.7165 97.8927 82.6636 97.9009 82.6147C97.909 82.5659 97.9212 82.5089 97.9375 82.4438C98.1979 82.4194 98.4909 82.3869 98.8164 82.3462C99.1419 82.3055 99.4471 82.2444 99.7316 82.1631C100.017 82.0735 100.257 81.9596 100.453 81.8213C100.648 81.6829 100.75 81.4998 100.758 81.272C100.798 80.1245 100.831 78.9811 100.855 77.8418C100.88 76.6943 100.9 75.5387 100.916 74.375H96.2407L92.2612 81.1743C92.2368 81.2394 92.2083 81.3167 92.1758 81.4062C92.1513 81.4876 92.1391 81.5405 92.1391 81.5649C92.1391 81.7602 92.2205 81.9108 92.3833 82.0166C92.5542 82.1224 92.7617 82.2038 93.0058 82.2607C93.2581 82.3096 93.5267 82.3462 93.8115 82.3706C94.1045 82.3869 94.373 82.4113 94.6172 82.4438C94.6334 82.4927 94.6456 82.5456 94.6538 82.6025C94.6619 82.6595 94.666 82.7165 94.666 82.7734C94.666 82.8141 94.6619 82.8589 94.6538 82.9077C94.6456 82.9484 94.6334 82.9931 94.6172 83.042C94.2754 83.0338 93.9621 83.0216 93.6772 83.0054C93.3924 82.9972 93.1238 82.985 92.8716 82.9687C92.6274 82.9606 92.3955 82.9525 92.1758 82.9443C91.9642 82.9443 91.7526 82.9443 91.541 82.9443C91.1097 82.9443 90.6051 82.9525 90.0273 82.9687C89.4577 82.9931 88.827 83.0176 88.1352 83.042C88.119 83.0013 88.1067 82.9525 88.0986 82.8955C88.0905 82.8385 88.0864 82.7897 88.0864 82.749C88.0864 82.692 88.0905 82.6391 88.0986 82.5903C88.1067 82.5333 88.119 82.4845 88.1352 82.4438C88.7781 82.3706 89.3559 82.2404 89.8686 82.0532C90.3895 81.8579 90.7638 81.5731 90.9917 81.1987L99.9886 65.9399C99.6876 65.826 99.3494 65.7487 98.9751 65.708C98.6007 65.6592 98.263 65.6144 97.9619 65.5737C97.9456 65.5167 97.9334 65.4638 97.9253 65.415C97.9171 65.3662 97.9131 65.3174 97.9131 65.2685C97.9131 65.2197 97.9171 65.1749 97.9253 65.1343C97.9334 65.0936 97.9456 65.0488 97.9619 65ZM100.733 66.6479L96.6924 73.6181H100.916V73.5693C100.916 72.4381 100.908 71.2907 100.892 70.1269C100.876 68.9632 100.839 67.8035 100.782 66.6479H100.733ZM119.091 65C120.849 65.0651 122.265 65.0976 123.339 65.0976C123.746 65.0976 124.401 65.0814 125.304 65.0488C126.207 65.0163 126.903 65 127.391 65C129.198 65 130.618 65.4557 131.652 66.3672C132.693 67.2786 133.214 68.4627 133.214 69.9194C133.214 71.0913 132.868 72.1411 132.177 73.0688C131.485 73.9884 130.541 74.6476 129.345 75.0464C129.89 76.0229 130.639 77.1297 131.591 78.3667C132.51 79.5955 133.385 80.5599 134.215 81.2597C135.053 81.9596 135.953 82.3543 136.913 82.4438C136.946 82.574 136.962 82.6758 136.962 82.749C136.962 82.8304 136.946 82.9199 136.913 83.0176C136.425 82.9931 135.904 82.9769 135.35 82.9687C134.797 82.9606 134.179 82.9565 133.495 82.9565C132.82 82.9565 132.299 82.9525 131.933 82.9443C129.743 80.3971 127.986 77.8906 126.659 75.4248C126.065 75.4248 125.381 75.3312 124.608 75.144C124.608 76.7228 124.653 78.7654 124.743 81.272C124.751 81.4835 124.844 81.6666 125.023 81.8213C125.202 81.9678 125.459 82.0817 125.792 82.1631C126.134 82.2444 126.419 82.3055 126.647 82.3462C126.883 82.3787 127.188 82.4113 127.562 82.4438C127.595 82.6066 127.611 82.7165 127.611 82.7734C127.611 82.8385 127.595 82.9199 127.562 83.0176C126.179 82.9687 124.763 82.9443 123.314 82.9443C121.849 82.9443 120.433 82.9687 119.066 83.0176C119.034 82.9199 119.017 82.8385 119.017 82.7734C119.017 82.6351 119.034 82.5252 119.066 82.4438C119.31 82.4194 119.506 82.3991 119.652 82.3828C119.799 82.3665 119.998 82.338 120.25 82.2973C120.511 82.2567 120.718 82.2119 120.873 82.1631C121.036 82.1061 121.203 82.0369 121.373 81.9555C121.544 81.8742 121.67 81.7765 121.752 81.6626C121.841 81.5486 121.886 81.4184 121.886 81.272C121.984 78.7248 122.033 76.1572 122.033 73.5693C122.033 70.9326 121.992 68.658 121.911 66.7456C121.902 66.534 121.809 66.355 121.63 66.2085C121.451 66.0539 121.19 65.9359 120.849 65.8545C120.515 65.7731 120.23 65.7161 119.994 65.6836C119.766 65.6429 119.465 65.6063 119.091 65.5737C119.058 65.4272 119.042 65.3255 119.042 65.2685C119.042 65.2197 119.058 65.1302 119.091 65ZM124.767 65.8423H124.743C124.653 68.8452 124.608 71.6365 124.608 74.2163C125.178 74.4035 125.756 74.4971 126.342 74.4971C126.879 74.4971 127.359 74.4075 127.782 74.2285C128.213 74.0413 128.567 73.7972 128.844 73.4961C129.121 73.195 129.349 72.841 129.528 72.4341C129.715 72.0272 129.845 71.6162 129.918 71.2012C130 70.7861 130.04 70.3589 130.04 69.9194C130.04 68.7069 129.707 67.7181 129.039 66.9531C128.38 66.18 127.44 65.7934 126.22 65.7934C125.617 65.7934 125.133 65.8097 124.767 65.8423Z" fill="#2C1D01"/>
<path d="M73.4149 53.2124C77.3604 50.3946 79.9902 50.8077 85.6138 53.2124M73.4149 48.5269C77.3604 45.7091 86.2195 46.1638 91.7133 53.2124M73.2851 44.3393C77.2306 41.5215 89.2043 40.7741 97.8993 53.2124M73.2851 39.6538C77.2306 36.8359 95.0875 37.0427 103.09 53.2124M73.6312 34.721C80.0767 32.5648 100.105 34.721 108.627 53.2124M73.6312 30.0355C81.3745 28.5434 101.62 30.9481 114.684 53.2124M73.5014 25.8478C83.7537 23.4438 107.719 30.7408 120.177 53.2124M73.5014 21.1623C80.2498 19.6706 108.627 23.9414 125.368 53.2124M73.5447 17.2674C86.6953 14.53 115.852 24.812 130.906 53.2124M73.5447 12.5819C86.6953 9.4304 120.177 23.3609 133.198 48.5269M73.4149 8.3943C92.2757 5.07712 118.101 22.4902 126.493 32.5648M73.4149 3.70879C77.3604 0.890947 105.816 6.5282 118.101 19.6706M67.7913 53.751C67.066 53.3571 65.0246 53.5199 64.3306 53.9583M67.2289 51.4707C63.898 51.0561 61.2611 53.0638 60.5671 53.5022M67.2289 48.8587C63.898 48.4441 57.1515 53.3126 56.4575 53.751M67.2289 46.1224C60.5671 46.7028 53.7341 53.3126 53.0401 53.751M67.2289 44.0908C56.4575 44.3393 50.533 53.0638 49.839 53.5022M67.2289 42.0593C53.862 42.9299 47.7211 53.0638 47.0272 53.5022M67.2289 39.6538C51.0069 40.3862 45.0824 53.3126 44.3884 53.751M67.2289 37.6222C47.8058 39.1156 42.4436 53.3126 41.7496 53.751M67.2289 35.5907C44.3884 37.6222 39.7616 53.0638 39.0676 53.5022M67.2289 33.5592C44.3884 34.721 36.7335 53.0638 36.0395 53.5022M67.2289 31.5277C41.7496 32.8967 34.3542 53.0638 33.6602 53.5022M67.2289 29.4961C38.5052 31.5277 32.148 53.3126 31.4541 53.751M67.2289 27.4646C36.6883 28.8387 29.639 53.0638 28.9451 53.5022M67.2289 25.0608C34.5254 27.1104 26.8705 53.3126 26.1765 53.751M67.2289 23.0292C31.0647 25.4754 24.5778 53.3126 23.8838 53.751M67.2289 20.8319C27.9501 23.6926 22.5014 53.3126 21.8074 53.751M67.2289 18.5101C25.0085 21.5355 20.0789 53.0638 19.3849 53.5022M67.2289 16.5615C22.2832 19.43 17.1373 53.0638 16.4433 53.5022M67.2289 13.9495C18.2169 18.137 14.3255 53.5199 13.6315 53.9583M67.2289 11.918C16.4433 15.3592 11.4272 53.3126 10.7332 53.751M67.2289 9.88646C13.6315 13.9495 9.26425 52.774 8.57026 53.2124M67.2289 7.64763C12.55 11.918 6.84176 53.5199 6.14777 53.9583M67.2289 5.6161C12.8961 9.4304 4.02995 53.5199 3.33596 53.9583M67.2289 3.29435C10.7332 5.6161 1.69399 52.774 1 53.2124" stroke="#2C1D01" stroke-linecap="round"/>
<path d="M3.08678 82.5C3.08678 82.5 2.89152 83 3.08678 83H9.58678V82.5C9.58678 82.5 8.08678 82.5 7.58678 82C7.08678 81.5 7 81 7 81H5C5 81 5 81.5 4.5 82C4 82.5 3.08678 82.5 3.08678 82.5Z" fill="#2C1D01"/>
<path d="M22.0868 82.5C22.0868 82.5 21.8915 83 22.0868 83H28.5868V82.5C28.5868 82.5 27.0868 82.5 26.5868 82C26.0868 81.5 26 81 26 81H24C24 81 24 81.5 23.5 82C23 82.5 22.0868 82.5 22.0868 82.5Z" fill="#2C1D01"/>
<path d="M11 65V65.5C12.146 65.4555 12.6973 65.6975 13.5 66.5L17 66L16 65H11Z" fill="#2C1D01"/>
</g>
<defs>
<clipPath id="clip0_214_2805">
<rect width="138" height="144" fill="white"/>
</clipPath>
</defs>
</svg>
