<svg width="210" height="188" viewBox="0 0 210 188" fill="none" xmlns="http://www.w3.org/2000/svg">
<path d="M27.7009 97.9099C28.9161 88.9242 37.0643 81.0734 46.1006 80.1406C55.8224 79.1301 63.067 79.923 69.5014 87.7116C74.6272 93.9301 72.15 99.0603 80.3294 103.771C82.6664 105.123 93.3697 109.243 95.5041 108.59C98.511 107.688 98.3552 106.6 102.702 106.911C105.444 107.113 108.217 109.15 109.168 109.196C110.881 109.29 117.472 106.802 119.341 105.932C120.775 105.263 128.3 100.77 128.814 99.8687C129.11 99.3557 129.515 96.0444 129.967 94.7696C138.239 71.357 175.07 75.5078 176.768 102.512C177.734 117.902 175.974 134.288 176.768 149.803C175.195 161.556 158.275 161.012 157.231 149.337C156.25 138.361 157.418 124.96 157.262 113.643C157.216 110.627 155.627 106.118 158.493 103.755C159.911 103.584 160.347 104.533 160.519 105.776C161.718 114.871 160.176 128.054 160.472 137.77C160.503 138.859 160.924 139.885 160.97 140.973C161.173 145.543 159.459 151.249 164.242 153.923C168.184 156.13 172.484 153.223 173.278 149.119L173.014 101.625C171.004 77.8087 135.155 76.7826 132.615 100.677V159.053L132.195 160.001L129.452 160.126C129.39 159.784 128.907 159.209 128.907 159.037V128.24C125.947 129.422 118.547 130.028 116.225 131.459C115.197 132.096 112.969 135.718 111.411 136.962C109.261 138.688 100.926 143.258 98.3708 143.414C94.1019 143.662 89.1787 139.885 85.8602 137.568C85.237 137.475 83.57 139.527 82.3392 139.931C77.9613 141.361 74.3935 138.703 70.3895 137.506L70.8569 159.037C70.4362 161.183 67.1333 160.343 67.1333 159.488V136.325C64.3601 134.568 61.4779 133.744 58.8137 131.661C52.5506 126.764 48.1727 118.26 42.86 112.337C41.9875 110.704 44.6049 108.854 46.0383 110.129C51.4289 116.13 56.0561 125.644 62.9891 129.811C65.5598 131.35 75.0946 135.563 77.899 136.247C80.4073 136.869 81.4667 136.682 83.1182 134.692C90.5186 125.8 79.0674 124.307 73.4743 120.747C69.221 118.027 62.9268 109.88 60.5431 105.388C59.655 103.724 58.1282 99.8532 61.7271 100.553C62.6931 100.739 70.7323 113.891 73.3964 116.192C79.4102 121.385 94.5693 122.271 87.574 133.977C89.615 135.951 96.1273 140.087 98.807 139.729C101.253 139.403 106.831 134.35 109.806 133.775C109.962 133.262 109.76 132.889 109.573 132.422C109.168 131.396 104.556 124.401 103.824 123.794C101.954 122.255 100.303 124.09 98.3396 124.416C95.1614 124.945 92.4505 124.261 91.1574 121.151C89.7552 117.762 91.5157 115.726 92.17 112.508C84.8631 109.943 74.5337 107.735 71.0438 99.9931C68.5978 94.5519 68.9406 91.2717 63.6279 87.0276C57.3648 82.0372 43.9039 82.5347 37.6564 87.4939C34.8987 89.6704 31.3777 95.3292 31.3777 98.8271V159.504C31.3777 160.514 27.6697 160.748 27.6697 159.504V97.9099H27.7009ZM128.907 124.541V104.626C123.704 108.31 117.752 110.735 111.723 112.741C112.206 115.197 116.911 125.769 118.702 126.639C120.338 127.448 126.633 124.292 128.907 124.541ZM113.125 130.557L114.776 127.277C113.919 125.022 111.832 123.157 110.726 121.151C108.747 117.56 109.261 113.332 105.101 111.482C100.941 109.632 96.6414 111.124 95.1614 115.633C92.3882 124.121 98.8538 119.208 102.702 119.41C108.264 119.69 109.791 127.183 113.125 130.557Z" fill="#67362D"/>
<path d="M80.5319 53.0436C80.5319 66.8019 69.3457 77.9641 55.542 77.9641C41.7383 77.9641 30.552 66.8019 30.552 53.0436C30.552 39.2852 41.7383 28.123 55.542 28.123C69.3457 28.123 80.5319 39.2852 80.5319 53.0436ZM76.7461 53.0591C76.7461 41.3528 67.2424 31.8697 55.5108 31.8697C43.7792 31.8697 34.2755 41.3528 34.2755 53.0591C34.2755 64.7654 43.7792 74.2486 55.5108 74.2486C67.2424 74.2486 76.7461 64.7654 76.7461 53.0591Z" fill="#67362D"/>
<path d="M174.182 53.0436C174.182 66.8019 162.996 77.9641 149.192 77.9641C135.388 77.9641 124.202 66.8019 124.202 53.0436C124.202 39.2852 135.388 28.123 149.192 28.123C162.996 28.123 174.182 39.2852 174.182 53.0436ZM170.396 53.0591C170.396 41.3528 160.892 31.8697 149.161 31.8697C137.429 31.8697 127.926 41.3528 127.926 53.0591C127.926 64.7654 137.429 74.2486 149.161 74.2486C160.892 74.2486 170.396 64.7654 170.396 53.0591Z" fill="#67362D"/>
</svg>
