<svg width="215" height="188" viewBox="0 0 215 188" fill="none" xmlns="http://www.w3.org/2000/svg">
<path d="M115.968 87.1364L145.876 61.6717C147.414 61.3452 148.409 62.2003 149.527 63.0709C155.587 67.7347 161.366 74.1242 167.364 79.0368C168.249 79.7675 169.477 80.9024 170.611 81.12V73.9377C170.611 72.3364 179.949 72.2898 180.834 73.4246C182.326 75.3057 180.104 87.9137 181.968 91.738L198.842 107.284C200.069 107.844 199.354 110.285 198.608 110.285H188.649C188.882 125.178 188.339 140.102 188.634 154.995C188.68 157.281 190.327 163.919 187.733 165.163L105.62 164.961C104.268 164.106 105.061 159.131 104.843 157.514H20.835C20.7573 157.514 20.0115 156.799 19.9183 156.581L19.6542 30.8281L20.2446 28.4029L22.6683 27.8121L90.1918 27.921L115.983 52.6083V87.1053L115.968 87.1364ZM87.2709 31.5588H23.3675V154.28C23.8647 154.451 24.3774 153.814 24.5172 153.814H104.843V110.285H95.8162C93.9207 110.285 92.6622 107.813 94.1848 106.336L112.254 90.6032V55.1734C111.912 55.0491 111.695 55.6398 111.555 55.6398H88.8712C88.7624 55.6398 87.2553 54.1318 87.2553 54.023V31.5588H87.2709ZM109.489 51.9243L90.9687 33.3932V51.9243H109.489ZM99.7626 107.035H106.941C107.096 107.035 107.64 107.642 108.09 107.502V161.68H128.459V121.618C128.459 120.685 129.982 119.643 130.976 119.504C135.435 118.897 149.061 119.022 153.691 119.519C154.623 119.612 156.224 119.985 156.224 121.136V161.665H184.936V108.637C184.936 108.512 185.418 107.564 185.713 107.455L193.264 106.787L146.265 65.7759L99.7315 107.004L99.7626 107.035ZM178.022 76.4717H173.858V84.5713L177.338 88.0381H178.022V76.4717ZM152.557 123.25H132.188V161.696H152.557V123.25Z" fill="#67362D"/>
<path d="M36.6671 46.9339L69.015 46.8096C70.6153 46.8873 71.7184 48.2243 71.563 49.81C70.5531 59.6196 72.806 71.8389 71.563 81.3532C71.3766 82.7368 70.9571 83.3897 69.4811 83.4364C59.3665 82.6435 47.8848 84.4158 37.9567 83.4364C37.1798 83.3586 36.4185 83.483 35.8592 82.7523L35.6727 47.7423L36.6982 46.9184L36.6671 46.9339ZM67.8186 50.5407H39.1064V79.7208H67.8186V50.5407Z" fill="#67362D"/>
<path d="M36.1079 93.1527H94.9151C96.2824 93.1527 96.9194 96.4174 93.0662 96.8683C75.4163 95.5468 55.2804 98.5939 37.9257 96.8838C35.5485 96.6506 33.7152 95.0338 36.1079 93.1527Z" fill="#67362D"/>
<path d="M34.9892 109.321C34.8028 106.662 35.5485 106.305 37.9412 106.103C52.9188 104.843 69.5899 107.098 84.754 106.103L87.2399 107.813C87.3797 108.637 85.6396 110.005 84.754 109.849C69.3413 108.963 52.7634 110.953 37.4751 109.849C36.605 109.787 35.7816 109.663 34.9892 109.321Z" fill="#67362D"/>
<path d="M86.8359 119.55H35.1757V123.25H86.8359V119.55Z" fill="#67362D"/>
<path d="M71.4699 132.516H35.1912V136.216H71.4699V132.516Z" fill="#67362D"/>
<path d="M62.1943 58.9356C62.5361 59.4641 62.272 60.8944 61.8215 61.4385C59.5065 63.0242 53.8821 71.1082 51.738 71.7456C51.0233 71.9633 50.4329 71.9011 49.7648 71.5901C49.3608 71.4036 43.4568 65.9002 43.348 65.4805C43.0062 64.2368 43.9695 62.7444 45.2746 63.0864L50.9301 68.1233C53.0586 66.8486 58.916 58.5624 60.6406 58.4381C60.9203 58.4225 62.1322 58.8112 62.2099 58.9356H62.1943Z" fill="#67362D"/>
</svg>
