<svg width="258" height="211" viewBox="0 0 258 211" fill="none" xmlns="http://www.w3.org/2000/svg">
<path d="M64.6206 44.1263C66.8612 43.9092 67.468 47.6781 67.7792 49.2291C68.2616 51.6642 69.8954 66.0111 69.413 67.4381L56.8717 73.2544C55.8759 72.8976 55.3001 72.2152 54.9578 71.238C53.0595 65.9956 53.7908 56.5034 52.5616 50.7336C53.0284 49.1671 63.1735 44.2659 64.6361 44.1263H64.6206ZM57.1051 71.0364L67.079 65.887C67.6081 64.367 66.1143 51.4316 65.632 49.043C64.7606 44.7777 56.8717 50.0202 54.8956 51.4626L57.1207 71.0364H57.1051Z" fill="#67362D"/>
<path d="M76.2589 71.0059C76.2197 71.0474 76.1788 71.0868 76.1339 71.123C76.1457 71.1136 76.0668 71.1683 75.8067 71.3066C75.5777 71.4284 75.2655 71.5853 74.878 71.7744C74.1041 72.1521 73.0536 72.6449 71.8135 73.2139C69.3346 74.3513 66.1167 75.7855 62.878 77.2021C59.6391 78.6189 56.3838 80.0161 53.8311 81.0781C52.5542 81.6094 51.4579 82.0551 50.629 82.377C50.2139 82.5381 49.8714 82.6655 49.6104 82.7568C49.48 82.8025 49.3754 82.8378 49.295 82.8623L49.1739 82.8955L49.169 82.8965C47.654 83.1855 46.1884 83.1226 45.127 82.6436C44.2623 82.2533 43.6033 81.5659 43.3956 80.3477C43.4272 80.4544 43.4684 80.5623 43.5225 80.6699C43.8282 81.2772 44.4238 81.6923 45.0948 82.002C45.7885 82.3221 46.7152 82.5981 47.8936 82.8418L48.1993 82.9053L48.4864 82.7832L76.0274 71.1045L76.2589 71.0059ZM47.168 52.9805C47.2982 52.9806 47.3308 53.008 47.334 53.0107C47.3411 53.0162 47.4049 53.0693 47.4737 53.2695L49.9024 73.4932C49.4928 73.9856 48.7733 74.5564 47.8428 75.21C46.8311 75.9205 45.5885 76.721 44.7256 77.4736C44.2916 77.8522 43.8637 78.292 43.5987 78.7852C43.4634 79.0371 43.3639 79.3235 43.3321 79.6279C43.3147 78.7347 43.5509 78.0832 43.9063 77.5664C44.3039 76.9884 44.8854 76.5225 45.5762 76.0967C45.9195 75.8851 46.2751 75.6915 46.6368 75.499C46.9885 75.3118 47.3629 75.1168 47.6973 74.9219C48.0316 74.727 48.3753 74.5045 48.6671 74.2432C48.9595 73.9812 49.2494 73.6373 49.4014 73.1865L49.4005 73.1855C49.4566 73.0195 49.4757 72.8506 49.4844 72.7432C49.4948 72.616 49.499 72.4751 49.4991 72.3311C49.4992 72.0417 49.4837 71.6859 49.459 71.2949C49.4096 70.5103 49.3184 69.5282 49.2149 68.5332C49.0079 66.5437 48.746 64.4589 48.6524 63.7051H48.6534C48.4702 62.181 48.1915 60.6507 47.918 59.1543C47.6427 57.6476 47.3721 56.1757 47.1895 54.7197L47.002 53.2227L45.6964 53.9785C44.5316 54.6533 43.284 54.9428 42.1133 54.9443C42.4375 54.8656 42.7485 54.7617 43.0342 54.6523C43.8589 54.3368 44.7775 53.8585 45.4854 53.5312C46.2841 53.1621 46.8245 52.9803 47.168 52.9805ZM75.42 35.8135L75.2188 35.9023L75.0733 36.0664L73.6104 37.7266L73.3184 38.0586L73.3672 38.499L76.3389 64.9902L76.4464 65.9482L77.4083 65.876C78.461 65.7967 79.4402 65.6622 80.3516 65.4688C79.6171 65.8036 78.9086 66.2122 78.3253 66.7607L78.1544 66.9287C77.3238 67.7876 77.0629 68.8673 76.8624 69.5996C76.7889 69.868 76.7213 70.0931 76.6534 70.2852L76.6309 70.0762L72.8868 35.4951V35.0449C72.8958 35.07 72.9062 35.0955 72.9151 35.1221L73.2608 36.1553L74.2608 35.7227L142.817 6.03223L75.42 35.8135ZM88.8087 58.6211C88.7198 60.0491 88.3032 61.0357 87.7344 61.7656C87.0769 62.6093 86.1469 63.2018 85.0303 63.6973C84.7692 63.8131 84.5079 63.9185 84.2462 64.0195C84.756 63.7206 85.2355 63.386 85.6827 63.0059C87.0144 61.8738 88.0187 60.4135 88.8087 58.6211ZM112.938 47.9766L108.961 47.75L108.378 47.7168L108.063 48.209L105.033 52.9316L99.6719 52.376L99.0567 52.3115L98.7247 52.833L95.6924 57.5898L89.9219 57.043L89.4385 56.9971C89.5153 56.7713 89.5891 56.5411 89.6612 56.3066L94.5421 57.2373L95.2159 57.3662L95.5782 56.7842L98.7979 51.6113L104.378 52.3906L105.149 52.499L105.442 51.7773L107.487 46.7461L112.938 47.9766ZM71.6143 34.0918C71.9611 34.0763 72.183 34.1376 72.3419 34.2373L71.4815 34.6201L38.4005 49.3076L38.0958 49.4434L37.9327 49.7354C37.6371 50.2659 37.6052 50.8592 37.668 51.3623C37.7322 51.8761 37.9063 52.3899 38.1299 52.8486C38.3543 53.3088 38.6471 53.7507 38.9825 54.1133C39.0207 54.1546 39.0605 54.1963 39.1016 54.2373C38.837 54.0971 38.5926 53.9401 38.3741 53.7666C37.5767 53.1332 37.1732 52.3502 37.1973 51.5234C37.222 50.6832 37.6957 49.5672 39.1378 48.3076L39.1368 48.3066C39.3727 48.1013 39.9293 47.743 40.8214 47.2461C41.6874 46.7637 42.7999 46.1889 44.087 45.5527C46.6599 44.281 49.8991 42.7792 53.1954 41.3047C59.4022 38.5282 65.7214 35.888 68.1671 35.0498L68.6036 34.9072C68.8922 34.8181 69.1831 34.7207 69.459 34.6289C69.7395 34.5356 70.0068 34.4468 70.2676 34.3682C70.798 34.2084 71.2419 34.1085 71.6143 34.0918ZM117.601 42.2207L117.275 42.9053L114.809 48.083L113.936 48.0332L114.216 47.5215L117.167 42.1211L117.601 42.2207ZM126.936 37.6504L126.611 38.3281L124.09 43.6006L123.79 43.5352L124.07 42.8379L126.149 37.6416L126.936 37.6504ZM141.637 33.3662L142.283 33.4189L142.015 34.0762L135.814 33.0576L134.917 32.9111L134.685 33.7891L133.31 38.9912L127.726 37.7822L127.129 37.6523L132.498 37.7129L133.237 37.7207L133.462 37.0166L134.807 32.7959L141.637 33.3662ZM150.894 28.7344L150.975 28.748H151.753C151.743 28.8246 151.731 28.9016 151.722 28.9795L145.087 28.4258L144.44 28.3721L144.708 27.7158L150.894 28.7344ZM153.857 22.9658C154.003 22.922 154.249 22.9114 154.687 23.0059C154.995 23.0726 155.333 23.1767 155.715 23.2998C156.081 23.4178 156.5 23.5568 156.906 23.665C156.934 23.6725 156.963 23.6791 156.991 23.6865C156.174 23.5723 155.383 23.6195 154.656 23.9053C154.032 24.1508 153.519 24.5393 153.105 25.0527L153.857 22.9658ZM161.433 18.7012C161.373 19.6494 161.32 21.2671 161.133 22.8135C161.031 23.6537 160.896 24.3839 160.726 24.8896C160.711 24.9337 160.695 24.9736 160.681 25.0107C159.652 24.4739 158.682 24.0694 157.781 23.8418C158.38 23.918 159.042 23.8915 159.649 23.5615C160.58 23.056 161.05 22.0476 161.231 20.7217L161.263 20.4531V20.4463C161.287 20.2004 161.235 19.9426 161.2 19.7881C161.157 19.5942 161.093 19.3675 161.017 19.1221C160.864 18.6289 160.644 18.0008 160.38 17.292C159.85 15.8711 159.124 14.0758 158.369 12.2754C157.613 10.4737 156.823 8.6576 156.158 7.19531C155.592 5.94982 155.087 4.89136 154.772 4.3418L154.648 4.1377L154.642 4.12793L154.447 3.83594C154.233 3.51859 153.958 3.14091 153.618 2.84473C153.121 2.4105 152.472 2.13019 151.647 2.20898L153.718 1.31152L161.433 18.7012Z" fill="#67362D" stroke="#67362D" stroke-width="2"/>
<path d="M97.131 148.647C97.4606 148.891 97.7858 149.168 98.1144 149.519L98.3683 149.805L98.3693 149.807C101.537 153.547 106.884 160.957 112.017 168.549C117.149 176.138 122.014 183.832 124.242 188.141V188.142C124.547 188.74 124.72 189.016 124.811 189.339C124.858 189.508 124.877 189.68 124.809 189.92L112.468 198.21C112.457 198.208 112.445 198.207 112.434 198.206C112.309 198.188 112.16 198.163 112 198.135L112.324 197.918L123.932 190.132L124.765 189.573L124.204 188.742L97.131 148.647ZM110.939 197.647L111.157 197.971C111.001 197.938 110.856 197.906 110.735 197.876C110.722 197.873 110.711 197.869 110.699 197.866L83.7736 157.992C83.7885 157.886 83.8195 157.745 83.8683 157.557L110.939 197.647ZM79.6867 104.373C78.2625 105.319 76.9818 106.499 75.9933 107.851C74.1458 110.378 73.2829 113.566 74.5246 116.884L74.6506 117.206C75.1464 118.403 76.4088 120.591 78.0187 123.189C79.5973 125.737 81.5541 128.749 83.5656 131.753L75.4504 119.917L74.9338 119.164L74.1369 119.61L66.2785 124.015L65.3312 124.547L65.9396 125.447L84.5021 152.931L84.3703 153.059L85.092 153.778L85.1076 153.794L85.8801 153.154L86.4924 153.789C86.7793 153.511 87.3418 153.145 88.1389 152.669C88.8892 152.22 89.8078 151.697 90.6428 151.152C91.4725 150.611 92.3129 149.992 92.9064 149.309C93.4905 148.638 94.0039 147.701 93.7004 146.625L93.6555 146.467L93.5617 146.331L88.4162 138.827C90.5976 141.928 92.519 144.535 93.6848 145.921L94.0471 146.34L94.05 146.343C94.6679 147.024 95.3271 147.47 95.925 147.85L95.5568 148.097L84.3791 155.594C84.5812 154.552 84.6635 153.106 83.5812 152.094L62.7199 121.915L62.6389 121.797L62.5266 121.707L62.2502 121.493C60.8661 120.474 59.4456 120.187 58.0685 120.519C56.6663 120.858 55.4574 121.806 54.4553 122.894C52.9551 124.524 51.7121 126.705 50.8078 128.44L50.0187 129.99C49.8047 130.415 49.5551 131.094 49.2863 131.868C49.0125 132.657 48.6903 133.632 48.341 134.659C47.634 136.738 46.7929 139.104 45.8674 141.083C45.6532 141.541 45.4359 141.972 45.2189 142.37C45.755 141.247 46.3125 139.745 46.8361 138.218C47.3672 136.669 47.8781 135.049 48.3078 133.715C48.7508 132.339 49.0853 131.341 49.2795 130.93L49.2785 130.929C50.1828 129.03 51.1628 127.116 52.2473 125.434C53.337 123.745 54.4972 122.348 55.7424 121.442C56.9658 120.552 58.2405 120.152 59.6369 120.371C61.0649 120.594 62.7722 121.488 64.7844 123.501L65.0773 123.794H65.4924C65.7235 123.794 65.923 123.717 65.9904 123.691C66.0961 123.651 66.2066 123.6 66.3117 123.548C66.5243 123.442 66.781 123.298 67.0578 123.135C67.6152 122.808 68.3094 122.37 69.0041 121.915C70.3668 121.023 71.8393 119.998 72.3049 119.596L72.3058 119.597C73.0278 118.977 73.4992 118.331 73.7648 117.628C74.028 116.931 74.0584 116.256 74.0256 115.637C73.9598 114.4 73.7097 113.521 73.8762 112.269L73.9152 112.013L73.9162 112.01C74.4372 108.915 76.0793 106.91 78.2932 105.299C78.7418 104.972 79.2072 104.666 79.6867 104.373ZM42.8244 117.836C38.9411 125.988 38.1542 135.483 42.0021 144.064L42.2258 144.564L42.7678 144.644C43.1899 144.707 43.5415 144.556 43.7756 144.401C43.8302 144.365 43.8819 144.326 43.9318 144.285C43.6662 144.578 43.4283 144.772 43.2238 144.879C42.9655 145.013 42.7898 145.009 42.5578 144.865C42.2781 144.691 41.8906 144.282 41.4426 143.448L41.2473 143.064L40.926 142.37C37.7441 135.162 38.7176 126.715 42.2375 119.054C42.4256 118.645 42.6224 118.239 42.8244 117.836ZM65.8176 98.3552C61.2942 100.091 56.5884 101.899 52.2736 105.558C51.0408 106.602 49.8781 107.73 48.7941 108.928C51.823 105.448 55.3398 102.558 59.0314 100.615L59.0324 100.616C60.66 99.7613 62.5477 99.2472 64.5607 98.7019C64.9753 98.5896 65.3953 98.474 65.8176 98.3552ZM86.966 100.276C87.3039 100.66 87.6512 101.013 88.0099 101.319C88.7798 101.977 89.6644 102.483 90.6574 102.59C90.8012 102.605 90.944 102.611 91.0851 102.61L90.1848 103.264C89.624 103.464 89.0762 103.28 88.0012 102.86C87.0326 102.482 85.7292 101.975 84.1525 102.333L83.8332 102.416V102.417C83.1618 102.616 82.4932 102.871 81.8371 103.173C83.2091 102.458 84.6523 101.769 86.1154 100.983L87.09 100.46L86.966 100.276ZM85.7785 81.9226C85.9299 81.9379 86.0398 81.9704 86.1154 82.0085L86.1848 82.0505L86.1867 82.0525C86.1916 82.057 86.2429 82.1029 86.3527 82.2253C86.4615 82.3466 86.5994 82.5107 86.7639 82.7166C87.0922 83.1277 87.5064 83.6776 87.9807 84.3289C88.9281 85.63 90.0952 87.3074 91.2609 89.0242C93.6054 92.4771 95.8753 95.9907 96.3713 96.9519V96.9529C96.4827 97.175 96.6167 97.3962 96.7141 97.5632C96.821 97.7467 96.8987 97.8889 96.9553 98.0203C97.0019 98.1287 97.0243 98.2116 97.0324 98.281L95.5392 99.3679C95.7563 99.0316 95.9713 98.6718 96.1818 98.2878L96.4748 97.7527L96.133 97.2468L85.9572 82.1863L85.7785 81.9226ZM78.6301 87.3591C79.6556 88.3504 80.7607 90.1903 81.9953 92.3884C82.5646 93.4021 83.1575 94.4787 83.7658 95.5349L80.8381 91.198L80.1613 90.1951L79.3068 91.0457C76.7931 93.3095 74.1078 94.8476 71.3098 96.1199C72.1905 95.585 73.4265 94.7928 74.5998 93.9998C75.4285 93.4396 76.2438 92.8688 76.8996 92.3757C77.2269 92.1296 77.5232 91.8958 77.7648 91.6892C77.9885 91.498 78.2255 91.2806 78.383 91.0701L78.382 91.0691C79.1474 90.0496 78.8541 88.9239 78.6584 88.2546C78.5419 87.8564 78.4509 87.598 78.3898 87.3103C78.3724 87.2282 78.3608 87.1558 78.3537 87.0925L78.6301 87.3591ZM79.1857 85.5281C79.2928 85.4099 79.4101 85.2861 79.5392 85.1589C80.2242 84.4846 81.1188 83.7976 82.0637 83.2263C82.7616 82.8043 83.461 82.4611 84.0998 82.2312L79.1857 85.5281Z" fill="#67362D" stroke="#67362D" stroke-width="2"/>
<path d="M198.833 136.489C197.883 137.072 197.042 137.809 196.286 138.546C195.796 139.023 195.326 139.517 194.88 139.984C194.43 140.456 194.005 140.898 193.585 141.298C192.836 142.014 192.181 142.516 191.56 142.774L191.296 142.87L191.295 142.87C190.975 142.969 190.175 143.09 189.065 143.175C187.989 143.258 186.712 143.302 185.493 143.276C184.261 143.249 183.141 143.152 182.355 142.973C182.241 142.947 182.14 142.919 182.051 142.893L186.099 137.843L186.724 137.063C186.853 137.2 186.979 137.347 187.102 137.505L185.274 140.156L184.761 140.9L185.449 141.485C186.859 142.685 188.221 143.214 189.563 143.111C190.875 143.01 191.963 142.318 192.864 141.534C193.754 140.758 194.597 139.765 195.341 138.949C196.128 138.087 196.816 137.406 197.505 137.021L197.506 137.022C197.504 137.023 197.511 137.019 197.532 137.009C197.552 137 197.579 136.987 197.614 136.972C197.684 136.941 197.776 136.902 197.888 136.856C198.113 136.764 198.407 136.65 198.747 136.522C198.775 136.511 198.804 136.5 198.833 136.489ZM219.825 124.601C219.985 124.757 220.148 124.97 220.329 125.255C220.445 125.438 220.556 125.63 220.681 125.842C220.695 125.866 220.71 125.891 220.724 125.915C220.6 125.778 220.453 125.65 220.277 125.549C219.785 125.267 219.241 125.281 218.756 125.487L218.725 125.5L218.694 125.516C215.75 127.01 214.625 129.62 213.869 132.04C213.469 133.32 213.213 134.391 212.826 135.51C212.503 136.444 212.138 137.243 211.651 137.893L211.434 138.162L211.433 138.163C210.688 139.029 209.288 139.828 207.606 140.694C206.338 141.346 204.908 142.038 203.757 142.796C203.724 142.695 203.709 142.592 203.707 142.486C203.696 142.098 203.83 141.609 204.085 140.937C204.316 140.331 204.665 139.533 204.875 138.776C205.092 137.991 205.217 137.079 204.931 136.149L204.756 135.579L204.172 135.462L203.852 135.405C203.205 135.303 202.592 135.291 202.01 135.353C202.534 135.173 203.026 135.008 203.439 134.875C203.761 134.772 204.027 134.691 204.218 134.638C204.273 134.623 204.319 134.611 204.355 134.602C204.43 134.627 204.529 134.69 204.652 134.852C204.832 135.088 205.001 135.46 205.13 135.942C205.392 136.917 205.411 138.033 205.297 138.606L205.089 139.653L206.148 139.791C207.862 140.017 209.227 139.681 210.29 138.87C211.317 138.087 211.945 136.949 212.393 135.805C212.838 134.668 213.158 133.379 213.471 132.258C213.757 131.236 214.041 130.341 214.412 129.62L214.577 129.322L214.578 129.32C214.889 128.793 216.086 127.397 217.424 126.207C218.085 125.62 218.724 125.133 219.25 124.843C219.511 124.7 219.702 124.628 219.825 124.601ZM169.149 131.145C168.652 131.375 168.027 131.543 167.321 131.618L165.732 131.785L166.577 133.141C167.921 135.297 169.784 136.165 171.813 136.37C173.538 136.545 175.418 136.239 177.185 135.927C176.692 136.04 176.207 136.156 175.743 136.269C175.134 136.417 174.559 136.554 174.011 136.665C172.915 136.888 172.036 136.978 171.345 136.871C171.335 136.868 171.321 136.863 171.303 136.857C171.231 136.829 171.128 136.788 170.995 136.73C170.728 136.615 170.37 136.45 169.948 136.251C169.104 135.854 168.027 135.327 166.958 134.787C165.887 134.248 164.831 133.701 164.029 133.265C163.627 133.046 163.298 132.861 163.066 132.721C163.028 132.698 162.995 132.675 162.965 132.657C162.962 132.569 162.963 132.454 162.973 132.302C162.98 132.204 162.988 132.074 163 131.927L168.361 131.246L169.149 131.145ZM181.357 135.33C182.064 135.287 182.743 135.295 183.39 135.384C184.407 135.525 185.346 135.867 186.184 136.554L185.804 136.343C184.38 135.554 182.857 135.307 181.357 135.33ZM221.161 126.612C221.431 127.008 221.778 127.438 222.255 127.752C222.815 128.121 223.486 128.29 224.267 128.191L224.67 128.139C224.547 128.349 224.424 128.558 224.296 128.762C223.59 129.898 222.874 130.856 222.264 131.409C222.126 131.534 222.007 131.621 221.912 131.684C221.901 131.562 221.89 131.422 221.879 131.266C221.836 130.627 221.79 129.75 221.694 128.92C221.604 128.145 221.456 127.275 221.161 126.612ZM168.099 126.646C168.628 127.118 169.149 127.591 169.544 127.959C169.743 128.144 169.904 128.298 170.017 128.411C170.05 128.444 170.076 128.472 170.097 128.494C170.363 129.043 170.422 129.455 170.393 129.753C170.363 130.058 170.236 130.323 170.005 130.566C169.807 130.774 169.534 130.961 169.202 131.12L169.234 130.292C169.293 128.752 168.834 127.537 168.033 126.587C168.055 126.607 168.077 126.626 168.099 126.646ZM228.934 99.3138C229.542 99.9674 230.162 100.599 230.675 101.156C231.37 101.909 231.911 102.571 232.248 103.196L232.379 103.461C233.572 106.108 233.56 109.82 232.795 112.837C232.686 112.769 232.582 112.685 232.478 112.583C232.127 112.241 231.856 111.802 231.447 111.209C231.079 110.676 230.592 110.012 229.879 109.574C229.111 109.1 228.187 108.948 227.072 109.21L226.674 109.304L226.456 109.649C224.884 112.127 225.246 115.023 225.793 117.452C225.933 118.071 226.09 118.679 226.24 119.255C226.391 119.837 226.532 120.382 226.651 120.9C226.863 121.829 226.973 122.569 226.94 123.146L226.917 123.383V123.385C226.917 123.385 226.916 123.39 226.914 123.401C226.911 123.411 226.908 123.425 226.904 123.444C226.895 123.481 226.881 123.53 226.863 123.59C226.825 123.711 226.772 123.865 226.702 124.048C226.561 124.414 226.364 124.873 226.123 125.388C225.899 125.866 225.637 126.384 225.354 126.914C226.675 123.569 226.078 120.268 225.645 117.254C225.204 114.186 224.902 111.314 226.306 108.33L231.688 109.62L232.793 109.886L232.916 108.756C233.351 104.734 231.008 101.857 228.934 99.3138ZM152.027 99.8422C152.061 100.146 152.114 100.44 152.185 100.724C152.52 102.053 153.226 103.077 154.019 103.937C154.781 104.763 155.722 105.53 156.463 106.206C157.245 106.92 157.894 107.605 158.33 108.411V108.41C158.882 109.44 159.364 110.541 159.675 111.579C159.991 112.634 160.105 113.543 160.002 114.222C159.907 114.853 159.644 115.225 159.182 115.437C158.643 115.684 157.665 115.792 155.993 115.412L154.834 115.15L154.772 116.336C154.68 118.11 155.124 119.489 156 120.546C156.851 121.574 158.03 122.198 159.22 122.641C160.401 123.081 161.727 123.388 162.888 123.694C164.083 124.008 165.124 124.326 165.946 124.785C165.948 124.786 165.951 124.788 165.954 124.79C165.988 124.817 166.037 124.857 166.103 124.911C166.234 125.018 166.411 125.167 166.621 125.347C166.656 125.377 166.691 125.408 166.728 125.44C165.826 124.841 164.777 124.424 163.744 124.094C162.403 123.667 160.85 123.322 159.647 122.988C158.512 122.672 157.628 122.352 157.027 121.956L156.788 121.783C156.78 121.776 156.741 121.739 156.665 121.652C156.586 121.561 156.488 121.44 156.374 121.288C156.145 120.985 155.868 120.584 155.566 120.117C154.962 119.181 154.279 118.009 153.715 116.862C153.141 115.693 152.729 114.633 152.603 113.895C152.584 113.786 152.575 113.692 152.57 113.613L157.884 114.998L158.81 115.24L159.091 114.325C160.076 111.125 158.25 108.609 156.46 106.671C156.002 106.175 155.525 105.693 155.073 105.237C154.615 104.775 154.184 104.339 153.793 103.91C153.094 103.14 152.608 102.479 152.369 101.878L152.282 101.624C152.13 101.099 152.056 100.5 152.027 99.8422ZM152.208 92.6029C152.241 92.618 152.287 92.6411 152.343 92.6791C152.734 92.943 153.162 93.4931 153.736 94.2426C153.998 94.585 154.286 94.9591 154.581 95.2865C154.87 95.6072 155.219 95.9452 155.625 96.1742C156.053 96.4151 156.606 96.567 157.211 96.3832C157.783 96.2096 158.221 95.7884 158.567 95.2904L158.568 95.2914C158.98 94.6987 159.258 94.0726 159.437 93.4301C159.388 93.6322 159.338 93.8372 159.288 94.0414C159.074 94.9013 158.855 95.7513 158.677 96.4027C158.588 96.7295 158.511 97.0004 158.452 97.1947C158.425 97.2806 158.404 97.3445 158.388 97.389C158.348 97.4413 158.316 97.4595 158.289 97.4701C158.239 97.4896 158.136 97.511 157.949 97.4896C157.552 97.4442 157.019 97.2342 156.412 96.9047C155.822 96.5846 155.258 96.2073 154.795 95.9008C154.578 95.7566 154.356 95.6106 154.18 95.5111C154.1 95.4657 153.972 95.3963 153.832 95.35C153.767 95.3287 153.624 95.2863 153.444 95.2904C153.252 95.2948 152.877 95.3636 152.621 95.725L152.529 95.8549L152.481 96.0082C152.256 96.7383 152.112 97.4198 152.039 98.059C152.052 97.7569 152.068 97.4465 152.087 97.1293C152.177 95.6707 152.315 94.0498 152.208 92.6029ZM225.528 90.6683C225.184 92.311 225.414 93.762 225.944 95.0511C225.243 93.6342 224.88 92.1098 225.117 90.3031L225.621 90.2211L225.528 90.6683ZM158.343 81.9486C158.315 82.9792 158.497 83.9869 158.741 84.933C159.002 85.9484 159.39 87.0745 159.648 87.9642C159.926 88.9232 160.105 89.7601 160.092 90.516V90.5326C160.092 90.4802 160.092 90.5313 160.041 90.7953C159.999 91.0105 159.937 91.2982 159.861 91.6381C159.766 92.0607 159.649 92.555 159.523 93.0756C159.876 91.4774 159.657 89.7942 159.352 88.264C159.236 87.6847 159.103 87.1062 158.974 86.5472C158.844 85.9832 158.718 85.4403 158.611 84.9095C158.421 83.973 158.301 83.1325 158.312 82.3851L158.325 82.0707C158.327 82.0436 158.332 82.0032 158.343 81.9486ZM213.19 68.6918L213.511 68.7123L213.515 68.7133C213.519 68.7138 213.569 68.7205 213.682 68.7513C213.793 68.7814 213.935 68.8261 214.107 68.8861C214.451 69.006 214.887 69.1771 215.38 69.39C216.367 69.8157 217.548 70.392 218.642 71.0179C219.751 71.6525 220.708 72.304 221.292 72.8695C221.396 72.9708 221.478 73.0622 221.544 73.141C221.359 73.1813 221.147 73.2257 220.913 73.2719C220.237 73.4048 219.387 73.5645 218.594 73.767C217.824 73.9637 216.984 74.2289 216.373 74.6205C216.065 74.8177 215.723 75.1035 215.518 75.516C215.289 75.9762 215.285 76.4849 215.487 76.9623V76.9633C216.656 79.7255 219.569 80.8262 222.083 81.5287C222.732 81.7101 223.385 81.8715 224.003 82.0258C224.628 82.1815 225.216 82.3297 225.762 82.4877C226.884 82.812 227.685 83.1416 228.165 83.5414V83.5424C228.167 83.5448 228.201 83.5762 228.27 83.6586C228.338 83.7404 228.424 83.8511 228.524 83.9896C228.724 84.2664 228.966 84.6305 229.234 85.059C229.769 85.9149 230.385 86.9937 230.947 88.0726C231.511 89.1567 232.005 90.2129 232.306 91.0297C232.319 91.0644 232.33 91.099 232.342 91.1322L227.105 89.9808L229.763 89.5502L230.858 89.3724L230.568 88.3021C230.138 86.7133 229.408 85.54 228.458 84.6674C227.52 83.8049 226.419 83.2831 225.321 82.9105C224.243 82.5448 223.074 82.2957 222.053 82.0414C220.997 81.778 220.054 81.4995 219.243 81.0717C219.009 80.9469 218.504 80.5802 217.863 80.014C217.24 79.4644 216.547 78.7796 215.94 78.0687C215.324 77.347 214.84 76.6476 214.587 76.0677C214.462 75.7799 214.414 75.5696 214.409 75.431C214.407 75.387 214.411 75.3543 214.415 75.3304L217.764 72.7601L218.6 72.1185L217.916 71.3177C216.898 70.1262 215.765 69.4563 214.554 69.1693C213.367 68.8879 212.181 68.9928 211.077 69.2172C209.993 69.4374 208.867 69.8019 207.888 70.0775C206.868 70.3651 205.959 70.5713 205.123 70.5785C204.285 70.5778 203.333 70.3774 202.27 70.1019C203.929 70.4343 205.605 70.2008 207.141 69.8627C207.748 69.729 208.351 69.5747 208.929 69.4261C209.513 69.2762 210.07 69.1328 210.614 69.0111C211.574 68.7962 212.428 68.6663 213.19 68.6918ZM164.564 79.5424L164.889 80.7025L165.97 80.1693C167.666 79.3319 168.796 78.059 169.615 76.6498C168.713 78.4525 167.538 80.0057 165.583 81.0453C165.225 81.0757 164.99 81.0265 164.835 80.9613C164.663 80.8889 164.516 80.7664 164.376 80.5629C164.059 80.0989 163.878 79.3692 163.693 78.3881L163.535 77.5502L162.682 77.5746L160.503 77.6371L160.166 77.6459C160.371 77.2547 160.584 76.8627 160.802 76.4828C161.47 75.3228 162.149 74.3175 162.72 73.6986C162.777 73.6376 162.83 73.584 162.879 73.5355L164.564 79.5424ZM179.675 68.2455L179.659 68.3158L179.29 66.0082L179.121 64.9584L178.083 65.1908C174.002 66.1042 172.531 69.3292 171.359 72.3929C171.648 71.4852 171.895 70.6579 172.207 69.8148C172.615 68.7091 173.053 67.8273 173.626 67.1957C173.62 67.2032 173.646 67.1757 173.736 67.1039C173.817 67.039 173.926 66.9566 174.064 66.8588C174.339 66.6633 174.703 66.4214 175.13 66.1498C175.983 65.6073 177.061 64.9641 178.133 64.3636C179.116 63.8135 180.077 63.3107 180.847 62.9554L179.675 68.2455ZM185.935 68.9037C184.226 70.0369 182.389 70.7778 180.025 70.5941L179.807 69.2377L180.342 69.4125C182.553 70.1318 184.381 69.7433 185.935 68.9037ZM198.562 67.9261C198.709 68.2293 198.952 68.4822 199.218 68.6986L199.49 68.9037L199.492 68.9056C200.101 69.3375 200.727 69.6463 201.36 69.8597C200.382 69.592 199.318 69.2943 198.273 69.1205L198.562 67.9261ZM193.907 62.6683C195.257 62.3231 196.892 62.3482 198.7 62.4418C199.957 62.5069 201.311 62.604 202.604 62.5863C202.444 62.7801 202.254 62.9933 202.041 63.2172C201.595 63.6835 201.1 64.1492 200.671 64.5492C200.461 64.7454 200.261 64.931 200.1 65.0853C200.026 65.1561 199.949 65.232 199.875 65.307L199.679 65.5248L199.676 65.5287C199.584 65.6444 199.465 65.7491 199.292 65.892C199.226 65.947 199.112 66.0387 198.991 66.1517L199.486 64.1058L199.573 63.7494L199.408 63.4222L199.392 63.391L199.166 62.9388L198.667 62.8539L198.248 62.7914C194.273 62.285 191.538 64.4161 189.113 66.4291C189.422 66.1308 189.725 65.8317 190.017 65.5424C190.49 65.0736 190.938 64.6315 191.385 64.2318C192.179 63.5222 192.897 63.015 193.604 62.7611L193.907 62.6683Z" fill="#67362D" stroke="#67362D" stroke-width="2"/>
<path d="M192.446 74.7817C207.957 74.782 220.527 87.2908 220.527 102.693C220.527 118.11 207.957 130.604 192.446 130.604C176.935 130.604 164.364 118.095 164.364 102.693C164.364 87.2907 176.935 74.7817 192.446 74.7817ZM192.446 74.9683C177.039 74.9683 164.543 87.3854 164.543 102.724C164.543 118.063 177.04 130.479 192.446 130.479C207.853 130.479 220.348 118.063 220.349 102.724C220.349 87.4014 207.853 74.9685 192.446 74.9683Z" fill="#67362D" stroke="#67362D" stroke-width="2"/>
<path d="M192.384 94.4021C197.003 94.4021 200.735 98.1178 200.735 102.693C200.735 107.268 197.003 110.983 192.384 110.983C187.764 110.983 184.032 107.268 184.032 102.693C184.032 98.1178 187.764 94.4021 192.384 94.4021ZM192.321 94.5271C187.838 94.5272 184.179 98.1485 184.179 102.631C184.179 107.113 187.838 110.734 192.321 110.734C196.804 110.734 200.464 107.113 200.464 102.631C200.464 98.1484 196.804 94.5271 192.321 94.5271Z" fill="#67362D" stroke="#67362D" stroke-width="2"/>
<path d="M180.216 59.9312H97.8256V142.057H180.216V59.9312Z" stroke="#67362D" stroke-width="3" stroke-miterlimit="10"/>
<path d="M143.058 94.3328H119.454V141.685H143.058V94.3328Z" stroke="#67362D" stroke-width="3" stroke-miterlimit="10"/>
</svg>
