<svg width="153" height="199" viewBox="0 0 153 199" fill="none" xmlns="http://www.w3.org/2000/svg">
<path d="M42.4751 22.4313L106.57 22.3485C113.649 23.094 118.784 28.0972 119.282 35.254V166.811C118.568 173.239 113.283 178.258 106.869 178.904H42.1261C35.8778 178.026 31.0254 173.056 30.261 166.811V34.4588C30.9922 28.064 36.1769 23.21 42.4917 22.4479L42.4751 22.4313ZM33.6012 34.7239C33.219 37.5071 33.8837 41.0358 33.6012 43.9019H115.909V35.0055C115.909 30.7147 110.658 25.8275 106.287 25.9601L42.4086 26.0098C38.1378 26.5068 34.1662 30.5325 33.5845 34.7405L33.6012 34.7239ZM115.926 47.6625H33.6012V153.607H115.909V47.6625H115.926ZM115.926 157.219H33.6012V166.264C33.6012 170.654 38.6031 175.343 42.9902 175.541L105.473 175.591C110.109 175.856 115.926 170.903 115.926 166.264V157.219Z" fill="#67362D"/>
<path d="M57.1153 141.861L89.0713 142.01C89.7693 141.679 89.9022 140.817 89.9687 140.122C90.4007 135.93 89.6031 131.093 90.0185 126.835C90.6832 125.593 92.0127 125.659 92.8934 126.636L93.0097 142.043C92.7605 143.849 90.9657 145.009 89.4203 145.688H57.0322C54.6559 144.992 53.3431 143.137 53.127 140.685C52.7116 136.113 52.6285 125.41 53.1769 120.954C53.4594 118.618 55.0215 116.547 57.4643 116.315C65.5738 115.537 74.913 116.945 83.1554 116.315C85.3323 116.597 84.9667 119.364 83.4213 119.662H58.8602C57.4476 119.778 56.8993 119.993 56.7663 121.451C56.301 126.172 56.3841 135.616 56.7663 140.387C56.7996 140.9 56.8162 141.414 57.1153 141.845V141.861Z" fill="#67362D"/>
<path d="M45.5327 71.353L104.077 71.2867C106.587 71.3861 106.287 74.6332 104.077 74.9149H46.0147C43.9042 74.9149 43.3891 71.8169 45.5161 71.353H45.5327Z" fill="#67362D"/>
<path d="M100.488 103.327C102.532 102.714 103.429 104.404 102.366 106.044L77.2727 137.488C76.2258 138.747 75.0459 139.409 73.5171 138.448C70.9081 136.808 68.1329 131.987 65.5738 129.966C63.9452 128.011 65.7067 125.974 67.9169 127.365L74.7634 134.986L98.6266 105.1C98.9921 104.702 100.089 103.459 100.488 103.344V103.327Z" fill="#67362D"/>
<path d="M44.5523 88.7482C43.7048 87.8867 44.2698 85.6833 45.7322 85.733H91.7967C93.5416 85.9318 93.9072 88.0192 92.4781 88.947L46.0147 89.0961C45.5826 89.0629 44.8681 89.0464 44.5523 88.7482Z" fill="#67362D"/>
<path d="M45.8153 100.014L74.7635 99.9473C77.3558 99.765 77.7214 103.277 75.3285 103.575L45.0508 103.41C43.5885 102.465 44.0039 100.163 45.8153 100.014Z" fill="#67362D"/>
<path d="M66.6041 168.004C65.6901 167.092 66.2717 165.187 67.7839 164.988C70.1603 164.674 79.4164 164.657 81.7263 165.022C83.7869 165.336 83.87 168.086 81.7595 168.351C77.3226 168.037 72.4369 168.716 68.0664 168.351C67.6344 168.318 66.9198 168.302 66.6041 168.004Z" fill="#67362D"/>
<path d="M64.4937 33.8127C70.5259 34.2269 77.8045 33.0672 83.6872 33.7465C86.2131 34.0447 85.7644 37.0267 83.6706 37.3414C77.7879 36.9273 71.0411 37.9544 65.2747 37.3414C62.5494 37.0598 62.4829 34.2269 64.4937 33.7796V33.8127Z" fill="#67362D"/>
</svg>
