<svg width="155" height="188" viewBox="0 0 155 188" fill="none" xmlns="http://www.w3.org/2000/svg">
<path d="M26.6564 45.5659H136.912C137.021 45.5659 137.52 45.8768 137.613 46.0167L137.878 163.39C137.972 164.23 137.535 164.712 136.788 165.007L18.446 165.1C10.0643 164.37 5.04771 158.587 4.20642 150.425V45.4259C5.11003 34.7924 13.5697 26.6928 24.5999 28.0453C25.3477 28.1386 26.189 28.3096 26.6564 28.9625V45.5659ZM7.44695 45.9701V141.113C8.10129 141.253 7.88317 141.004 8.05455 140.755C10.89 136.62 14.3642 133.324 19.6145 132.593C20.5493 132.453 23.4159 132.718 23.6496 132.034L23.6963 46.2499L23.4315 31.3722C17.4801 30.6726 11.5911 34.1239 9.11395 39.5184C8.27266 41.3373 7.60274 43.9646 7.44695 45.9545V45.9701ZM134.887 161.618V48.9394L134.482 48.5352H26.6564V135.034C26.6564 136.387 20.6739 135.874 19.5522 136.045C9.31648 137.63 2.99122 154.513 13.149 160.11C14.0059 160.577 16.4675 161.618 17.3243 161.618H134.887Z" fill="#67362D"/>
<path d="M46.1463 71.7456H65.3558V58.3914C65.3558 58.2826 65.6674 57.7851 65.8076 57.6918H67.3188C67.459 57.7851 67.7706 58.267 67.7706 58.3914V71.7456L69.3909 71.6057C72.1796 69.3359 74.8281 66.3666 77.648 64.1901C78.2712 63.7082 79.424 62.7443 80.1407 62.62C82.5711 62.1691 85.983 66.3666 87.9148 67.688L88.3199 67.5637C88.1797 66.9418 86.6996 66.4443 86.6996 66.3511V58.1116C86.6996 57.4897 88.8652 57.2099 88.8652 58.1116V68.3721C89.2391 68.8695 92.2615 71.7456 92.5108 71.7456H108.34V58.1116C108.34 57.2099 110.505 57.4897 110.505 58.1116V71.7456H124.433C125.29 71.7456 125.321 74.1708 124.168 74.1708H110.505V87.2607L116.799 92.593C118.684 93.3548 122.486 92.2976 124.386 92.8573C125.399 93.1527 125.103 94.1943 124.854 94.956H119.713C121.13 95.7178 121.177 98.7338 119.572 98.7338H111.596V113.72L112.001 114.124H124.449C124.589 114.124 125.15 114.809 125.134 115.088C125.274 115.43 124.636 116.285 124.449 116.285H111.596V134.91H124.184C125.492 134.91 125.29 137.335 124.184 137.335H110.521V150.689C109.991 151.326 108.838 151.295 108.355 150.689V137.739L107.95 137.335H89.2858L88.8808 137.739V150.689C88.3511 151.326 87.1982 151.295 86.7152 150.689V137.335H67.7706V150.425C67.7706 151.389 65.3402 151.389 65.3402 150.425V137.335H46.1307V150.689C45.4452 151.451 43.9029 151.295 43.7782 150.114L43.9652 137.335H35.7081C34.4617 137.335 34.4617 134.91 35.7081 134.91H43.9652V116.285H35.4432C35.0849 116.285 34.6643 115.353 34.8045 114.855C35.4432 112.601 42.7967 114.964 43.8406 113.876L43.9652 98.7493C42.2515 99.1069 40.195 98.0964 41.2855 96.2153C41.675 95.5312 42.454 95.7489 42.3449 94.9716H36.7986C35.7081 94.9716 34.6175 95.0804 34.8045 93.5413C34.8512 93.3548 35.3498 92.8107 35.4432 92.8107H43.9652V74.1863H35.7081C34.415 74.1863 34.6331 71.7611 35.4432 71.7611H43.9652L43.7003 58.6712C44.0431 56.9145 46.1307 57.583 46.1307 58.1271V71.7611L46.1463 71.7456ZM115.132 95.5002L80.9197 66.0868L46.9564 95.5002H51.9575C52.3781 95.5002 53.1727 96.6039 53.1727 96.977V133.946C53.1727 134.024 52.8299 134.148 52.9078 134.35H67.5213V105.605C67.5213 105.263 68.3626 104.968 68.721 104.921C74.2517 104.175 81.4338 105.512 87.1514 104.921C87.6811 104.735 88.6315 105.823 88.6315 106.149V134.35H108.651V96.4329C108.651 96.4329 109.524 95.4846 109.601 95.4846H115.148L115.132 95.5002ZM65.7609 74.1708C59.2175 74.1863 52.6741 74.1708 46.1463 74.1708V91.7069L66.1659 74.4351C66.3373 73.4712 66.0257 74.1708 65.7609 74.1708ZM108.371 74.1708H95.6578C99.6306 78.0729 104.071 81.5397 108.246 85.2397C109.072 85.3019 108.371 84.9443 108.371 84.8355V74.1708ZM46.1463 98.7338V114.124H49.9321V98.7338H46.1463ZM70.497 107.906V134.35H85.3754V107.906H70.497ZM46.1463 116.27V134.894H49.9321V116.27H46.1463Z" fill="#67362D"/>
</svg>
