<svg width="217" height="215" viewBox="0 0 217 215" fill="none" xmlns="http://www.w3.org/2000/svg">
<path d="M35.3715 99.0741C32.2478 98.3678 31.2997 91.8965 33.9884 89.7777L97.7067 36.2494C100.1 34.5905 100.535 34.1635 103.193 35.7567L129.861 57.9794C130.669 56.1398 129.038 51.4587 131.338 50.7361C134.29 51.1631 146.335 49.7506 148.153 50.8839C148.79 51.2781 149.008 52.5756 149.086 53.3312C149.785 59.8189 148.557 67.6371 149.07 74.2727C154.292 79.118 160.928 83.3885 165.963 88.3323C168.123 90.4511 170.019 91.8144 169.336 95.2964C169.134 96.3476 167.222 99.0741 166.429 99.0741H156.701L156.001 154.853H166.88C167.704 155.592 167.921 156.429 168.046 157.53C168.294 159.731 168.372 167.762 168.03 169.766C167.921 170.423 167.688 170.916 167.113 171.244L35.3715 171.442C34.7965 171.327 34.035 171.261 33.6931 170.67C33.1336 169.733 32.9937 158.614 33.2735 157.053C33.3822 156.413 34.5789 154.836 34.8897 154.836H45.7685L45.0691 99.0577C42.2407 98.6306 37.9358 99.649 35.3404 99.0577L35.3715 99.0741ZM100.333 39.4523L36.5526 92.4878C35.8377 93.1283 35.8377 94.2452 36.5371 94.9351C37.5006 95.9534 43.5617 95.9534 44.8671 95.395L99.0899 49.4385C100.085 48.6337 101.514 48.2559 102.571 49.1429L156.514 95.395C158.286 95.6085 167.113 96.8568 165.544 93.2105L101.499 39.4687C101.11 39.3044 100.737 39.3701 100.349 39.4523H100.333ZM152.784 154.853V96.8732L101.141 52.6906L49.0477 96.8732V154.853H108.788V108.617C108.788 107.681 110.917 106.958 111.771 106.876C119.744 106.038 129.426 107.369 137.507 107.155C137.709 107.286 138.44 108.485 138.44 108.617V154.853H152.8H152.784ZM145.371 54.5466H133.327L133.436 60.2953L133.731 61.1822L145.356 70.7086V54.563L145.371 54.5466ZM134.726 110.818H112.502V154.853H134.726V110.818ZM164.844 158.778H37.0033V167.582H164.844V158.778Z" fill="#67362D"/>
<path d="M95.8107 141.647H64.0914C63.2677 140.908 63.0501 140.07 62.9258 138.97C61.9156 129.887 63.7184 118.866 62.9258 109.569C63.1744 107.549 64.138 107.057 65.9252 106.876C72.2349 106.219 87.5273 106.153 93.7437 106.892C94.614 106.991 95.4377 107.139 96.0594 107.878L95.8262 141.647H95.8107ZM77.752 111.311H66.6401C66.5158 111.672 67.1063 111.902 67.1063 112.05V123.547H77.752V111.311ZM92.5781 111.311H81.4663V123.547H92.5781V111.311ZM77.752 126.963H67.1063V138.214H77.752V126.963ZM92.5781 126.963H81.4663V138.214H92.5781V126.963Z" fill="#67362D"/>
<path d="M117.351 128.606C119.682 128.606 120.039 132.663 118.749 134.322C118.065 135.028 116.605 135.11 115.952 134.322C114.817 132.728 115.113 128.622 117.351 128.622V128.606Z" fill="#67362D"/>
</svg>
